<svg width="235" height="40" viewBox="0 0 235 40" fill="none" xmlns="http://www.w3.org/2000/svg">
<g clip-path="url(#clip0_0_620)">
<path fill-rule="evenodd" clip-rule="evenodd" d="M187.74 18H187.67C187.326 17.2647 186.775 16.6459 186.084 16.2196C185.392 15.7933 184.592 15.5779 183.78 15.6C180.66 15.6 178.65 18.06 178.65 22.07C178.65 26.07 180.65 28.54 183.79 28.54C184.597 28.5714 185.396 28.3643 186.086 27.9446C186.776 27.5249 187.327 26.9111 187.67 26.18H187.74V28.29H190.66V11.29H187.74V18ZM187.74 22.09C187.74 24.53 186.48 26.09 184.67 26.09C182.86 26.09 181.67 24.56 181.67 22.09C181.67 19.62 182.85 18.09 184.67 18.09C186.49 18.09 187.74 19.66 187.74 22.09Z" fill="#0E0E0E"/>
<path fill-rule="evenodd" clip-rule="evenodd" d="M75.6201 11.4H82.1501C82.9161 11.3532 83.6832 11.4697 84.4008 11.7416C85.1184 12.0135 85.7701 12.4348 86.3127 12.9774C86.8553 13.52 87.2765 14.1717 87.5485 14.8892C87.8204 15.6068 87.9369 16.374 87.8901 17.14C87.924 17.9017 87.797 18.662 87.5175 19.3714C87.238 20.0808 86.8122 20.7234 86.2679 21.2573C85.7236 21.7912 85.073 22.2046 84.3583 22.4704C83.6437 22.7361 82.8811 22.8484 82.1201 22.8H78.6201V28.4H75.6201V11.4ZM81.4001 20.31C83.5701 20.31 84.8401 19.1 84.8401 17.1V17.07C84.8401 15.04 83.5701 13.88 81.4001 13.88H78.6501V20.31H81.4001Z" fill="#0E0E0E"/>
<path d="M67.95 24.1899H68.01L70.96 11.3999H74.1L69.56 28.3499H66.63L63.21 16.1899H63.14L59.72 28.3499H56.8L52.25 11.3999H55.4L58.35 24.1899H58.41L61.8 11.3999H64.55L67.95 24.1899Z" fill="#0E0E0E"/>
<path fill-rule="evenodd" clip-rule="evenodd" d="M100.18 11.3999H93.9902V28.3999H100.18C105.26 28.3999 108.24 25.2499 108.24 19.8899C108.24 14.4599 105.23 11.3999 100.18 11.3999ZM105.18 19.8499C105.18 23.7099 103.3 25.7899 99.9002 25.7899H97.0202V13.9999H99.8702C103.24 13.9999 105.15 16.0799 105.15 19.8599L105.18 19.8499Z" fill="#0E0E0E"/>
<path fill-rule="evenodd" clip-rule="evenodd" d="M109.88 19.5099C110.05 17.2999 111.97 15.6399 115.13 15.6399C118.24 15.6399 120.25 17.2899 120.25 19.7899V28.3299H117.32V26.4199H117.25C116.878 27.0796 116.334 27.6255 115.675 27.999C115.016 28.3725 114.267 28.5595 113.51 28.5399C111.02 28.5399 109.34 26.9999 109.34 24.7799C109.34 22.5699 111.07 21.2499 114.07 21.0599L117.32 20.8599V19.9999C117.32 18.7599 116.5 17.9999 115.02 17.9999C114.499 17.9247 113.969 18.0387 113.525 18.3213C113.081 18.6038 112.753 19.0362 112.6 19.5399V19.6499H109.88V19.5099ZM117.056 24.7936C117.214 24.4637 117.304 24.1053 117.32 23.7399V22.8099L114.48 22.9799C113.04 23.0799 112.25 23.6899 112.25 24.6899C112.25 25.7099 113.09 26.3299 114.38 26.3299C114.745 26.3598 115.112 26.3159 115.459 26.2008C115.806 26.0857 116.127 25.9018 116.401 25.66C116.675 25.4182 116.898 25.1235 117.056 24.7936Z" fill="#0E0E0E"/>
<path d="M125.11 18.0499H125.05V15.8999H122.13V28.3499H125.05V21.1299C125.05 19.2799 126.05 18.2399 127.71 18.2399C128.113 18.2316 128.514 18.2856 128.9 18.3999V15.7599C128.596 15.682 128.284 15.6417 127.97 15.6399C127.286 15.6395 126.623 15.8812 126.1 16.3223C125.577 16.7633 125.226 17.3753 125.11 18.0499Z" fill="#0E0E0E"/>
<path d="M137.68 15.8999H141.07L136.13 21.2599L141.27 28.3499H137.89L133.96 22.9999L132.97 24.0299V28.3499H130.05V11.3999H132.97V21.0699H133.03L137.68 15.8999Z" fill="#0E0E0E"/>
<path d="M155.32 24.3499H155.23L150.04 11.3999H146.54V28.3499H149.28V16.2999H149.36L154.25 28.3499H156.3L161.19 16.2999H161.28V28.3499H164.01V11.3999H160.51L155.32 24.3499Z" fill="#0E0E0E"/>
<path fill-rule="evenodd" clip-rule="evenodd" d="M165.74 22.0999C165.74 18.1099 168.12 15.6399 171.74 15.6399C175.36 15.6399 177.74 18.0899 177.74 22.0999C177.74 26.1399 175.38 28.5699 171.74 28.5699C168.1 28.5699 165.74 26.0999 165.74 22.0999ZM171.74 26.2399C173.56 26.2399 174.74 24.7299 174.74 22.1299C174.74 19.5399 173.53 18.0399 171.74 18.0399C169.95 18.0399 168.74 19.5499 168.74 22.1299C168.74 24.7499 169.92 26.2399 171.74 26.2399Z" fill="#0E0E0E"/>
<path fill-rule="evenodd" clip-rule="evenodd" d="M197.97 15.6399C201.53 15.6399 203.74 18.1399 203.74 21.8999V22.8299H195.03C195.08 25.0199 196.28 26.3099 198.18 26.3099C198.741 26.3564 199.301 26.226 199.784 25.9373C200.266 25.6485 200.646 25.2157 200.87 24.6999V24.6199H203.6V24.7499C203.21 26.6599 201.38 28.5899 198.12 28.5899C194.38 28.5899 192.12 26.1499 192.12 22.1499C192.12 18.2299 194.41 15.6399 197.97 15.6399ZM198.06 17.8999C196.46 17.8999 195.29 18.9899 195.06 20.8999H200.95C200.74 18.8999 199.66 17.8999 198.06 17.8999Z" fill="#0E0E0E"/>
<path d="M40.0999 19.9999C40.0999 16.074 38.9357 12.2362 36.7546 8.97184C34.5734 5.70753 31.4733 3.1633 27.8462 1.6609C24.2191 0.158503 20.2279 -0.234593 16.3774 0.531323C12.5268 1.29724 8.98991 3.18777 6.21384 5.96384C3.43777 8.73991 1.54724 12.2768 0.781323 16.1274C0.0154068 19.9779 0.408503 23.9691 1.9109 27.5962C3.4133 31.2233 5.95753 34.3234 9.22184 36.5046C12.4862 38.6857 16.324 39.8499 20.2499 39.8499C25.5145 39.8499 30.5634 37.7586 34.286 34.036C38.0086 30.3134 40.0999 25.2645 40.0999 19.9999Z" fill="black"/>
<path fill-rule="evenodd" clip-rule="evenodd" d="M0.25 20C0.25 16.0444 1.42298 12.1776 3.62061 8.8886C5.81824 5.59962 8.94181 3.03617 12.5963 1.52242C16.2509 0.00866568 20.2722 -0.387401 24.1518 0.384303C28.0314 1.15601 31.5951 3.06082 34.3921 5.85787C37.1892 8.65492 39.094 12.2186 39.8657 16.0982C40.6374 19.9778 40.2413 23.9992 38.7276 27.6537C37.2138 31.3082 34.6504 34.4318 31.3614 36.6294C28.0724 38.827 24.2056 40 20.25 40C14.9457 40 9.85859 37.8929 6.10786 34.1421C2.35714 30.3914 0.25 25.3043 0.25 20H0.25ZM20.25 1.63001C16.6168 1.63001 13.0651 2.70739 10.0442 4.72591C7.02324 6.74443 4.66871 9.61343 3.27833 12.9701C1.88795 16.3268 1.52416 20.0204 2.23297 23.5838C2.94178 27.1472 4.69136 30.4205 7.26045 32.9896C9.82954 35.5587 13.1028 37.3082 16.6662 38.017C20.2296 38.7258 23.9232 38.3621 27.2799 36.9717C30.6366 35.5813 33.5056 33.2268 35.5241 30.2058C37.5426 27.1849 38.62 23.6333 38.62 20C38.6173 15.1288 36.6811 10.4579 33.2366 7.01338C29.7922 3.56891 25.1212 1.63266 20.25 1.63001Z" fill="#FF631A"/>
<path d="M21.3302 29.3397C23.1032 29.3575 24.8437 28.8631 26.3427 27.9158C27.8416 26.9686 29.0352 25.6088 29.7802 23.9997C28.8188 24.4176 27.7782 24.6223 26.7302 24.5997C24.7631 24.5971 22.8773 23.8145 21.4864 22.4235C20.0954 21.0326 19.3128 19.1468 19.3102 17.1797C19.3282 15.8183 19.7078 14.4861 20.4102 13.3197C21.1096 12.1494 22.1114 11.1891 23.3102 10.5397C22.6475 10.4489 21.9789 10.4088 21.3102 10.4197C18.8558 10.4995 16.5286 11.5307 14.8206 13.2951C13.1126 15.0595 12.1577 17.419 12.1577 19.8747C12.1577 22.3304 13.1126 24.6899 14.8206 26.4543C16.5286 28.2188 18.8558 29.2499 21.3102 29.3297L21.3302 29.3397Z" fill="#D7F1E1"/>
<path d="M29.1802 14.0498C29.378 14.0498 29.5713 13.9912 29.7357 13.8813C29.9002 13.7714 30.0284 13.6152 30.1041 13.4325C30.1797 13.2498 30.1995 13.0487 30.161 12.8547C30.1224 12.6607 30.0271 12.4826 29.8873 12.3427C29.7474 12.2028 29.5692 12.1076 29.3753 12.069C29.1813 12.0304 28.9802 12.0502 28.7975 12.1259C28.6148 12.2016 28.4586 12.3298 28.3487 12.4942C28.2388 12.6587 28.1802 12.852 28.1802 13.0498C28.1802 13.315 28.2855 13.5694 28.4731 13.7569C28.6606 13.9444 28.915 14.0498 29.1802 14.0498Z" fill="white"/>
<path d="M25.2501 22.6501C25.3181 22.652 25.3852 22.6335 25.4426 22.597C25.5 22.5604 25.5452 22.5074 25.5721 22.4449C25.5991 22.3823 25.6067 22.3132 25.5939 22.2463C25.5811 22.1794 25.5485 22.1179 25.5003 22.0698C25.4522 22.0217 25.3907 21.9891 25.3238 21.9763C25.257 21.9635 25.1878 21.9711 25.1253 21.998C25.0628 22.025 25.0098 22.0701 24.9732 22.1275C24.9366 22.1849 24.9181 22.252 24.9201 22.3201C24.9201 22.4076 24.9548 22.4915 25.0167 22.5534C25.0786 22.6153 25.1625 22.6501 25.2501 22.6501Z" fill="white"/>
<path d="M23.2499 15.9998C23.3374 15.9998 23.4214 15.9651 23.4833 15.9032C23.5452 15.8413 23.5799 15.7574 23.5799 15.6698C23.5799 15.5823 23.5452 15.4984 23.4833 15.4365C23.4214 15.3746 23.3374 15.3398 23.2499 15.3398C23.1624 15.3398 23.0785 15.3746 23.0166 15.4365C22.9547 15.4984 22.9199 15.5823 22.9199 15.6698C22.9199 15.7574 22.9547 15.8413 23.0166 15.9032C23.0785 15.9651 23.1624 15.9998 23.2499 15.9998Z" fill="white"/>
<path d="M33.1498 20.66C33.2151 20.66 33.2789 20.6406 33.3332 20.6044C33.3874 20.5681 33.4297 20.5166 33.4547 20.4563C33.4797 20.396 33.4862 20.3296 33.4735 20.2656C33.4608 20.2016 33.4293 20.1428 33.3832 20.0967C33.337 20.0505 33.2782 20.0191 33.2142 20.0063C33.1502 19.9936 33.0838 20.0001 33.0235 20.0251C32.9632 20.0501 32.9117 20.0924 32.8754 20.1467C32.8392 20.2009 32.8198 20.2647 32.8198 20.33C32.8198 20.4175 32.8546 20.5015 32.9165 20.5633C32.9784 20.6252 33.0623 20.66 33.1498 20.66Z" fill="white"/>
</g>
<defs>
<clipPath id="clip0_0_620">
<rect width="235" height="40" fill="white"/>
</clipPath>
</defs>
</svg>
