<svg width="234" height="40" viewBox="0 0 234 40" fill="none" xmlns="http://www.w3.org/2000/svg">
<g clip-path="url(#clip0_809_177)">
<path fill-rule="evenodd" clip-rule="evenodd" d="M33.4121 19.4215L31.8684 19.9325C31.6429 20.0071 31.4907 20.218 31.4907 20.4555C31.4907 20.693 31.6429 20.9037 31.8684 20.9783L33.4121 21.4895L33.9233 23.0333C33.9979 23.2587 34.2086 23.4109 34.4461 23.4109C34.6836 23.4109 34.8943 23.2587 34.969 23.0333L35.4801 21.4895L37.0239 20.9783C37.2493 20.9037 37.4016 20.693 37.4016 20.4555C37.4016 20.218 37.2493 20.0071 37.0239 19.9325L35.4801 19.4215L34.969 17.8777C34.8943 17.6522 34.6836 17.5 34.4461 17.5C34.2086 17.5 33.9979 17.6522 33.9233 17.8777L33.4121 19.4215ZM31.7374 9.35174L31.076 11.3494C31.0708 11.3654 31.0581 11.3779 31.042 11.3833L29.0444 12.0447C28.7881 12.1295 28.615 12.3691 28.615 12.6391C28.615 12.9092 28.7881 13.1488 29.0444 13.2337L31.042 13.895C31.0581 13.9003 31.0708 13.913 31.076 13.9291L31.7374 15.9265C31.8222 16.1829 32.0619 16.3561 32.3318 16.3561C32.6019 16.3561 32.8415 16.1829 32.9264 15.9265L33.5876 13.9291C33.593 13.913 33.6057 13.9003 33.6217 13.895L35.6192 13.2337C35.8756 13.1488 36.0487 12.9092 36.0487 12.6391C36.0487 12.3691 35.8756 12.1295 35.6192 12.0447L33.6217 11.3833C33.6057 11.3779 33.593 11.3654 33.5876 11.3494L32.9264 9.35174C32.8415 9.09541 32.6019 8.92236 32.3318 8.92236C32.0619 8.92236 31.8222 9.09541 31.7374 9.35174Z" fill="#FFDA33"/>
<g clip-path="url(#clip1_809_177)">
<path fill-rule="evenodd" clip-rule="evenodd" d="M12.8867 15.5144L3.7382 17.6768C3.60749 17.7078 3.47678 17.7304 3.34649 17.7454V31.9896C3.34649 33.6725 4.71268 35.0388 6.39569 35.0388H13.0216V35.0268H13.5944V35.0388H18.4174V35.0268H18.99V35.0388H25.6161C27.299 35.0388 28.6653 33.6725 28.6653 31.9896V17.2132C28.6653 16.2302 27.8685 15.4335 26.8855 15.4335H18.99V15.4486H18.4174V15.4335H13.5944V15.4486H13.092C13.0154 15.4486 12.9445 15.473 12.8867 15.5144Z" fill="#713DDD"/>
<path fill-rule="evenodd" clip-rule="evenodd" d="M16.1793 19.6937C16.4562 19.6937 16.6806 19.4693 16.6806 19.1924V17.537C16.6806 17.2602 16.4562 17.0358 16.1793 17.0358C15.9025 17.0358 15.6781 17.2602 15.6781 17.537V19.1924C15.6781 19.4693 15.9025 19.6937 16.1793 19.6937ZM18.5194 20.5447C18.6477 20.5447 18.776 20.4958 18.8738 20.3979L20.2104 19.0613C20.4062 18.8656 20.4062 18.5482 20.2104 18.3524C20.0147 18.1567 19.6973 18.1567 19.5016 18.3524L18.165 19.689C17.9692 19.8848 17.9692 20.2021 18.165 20.3979C18.2629 20.4958 18.3911 20.5447 18.5194 20.5447ZM13.8422 20.5447C13.7139 20.5447 13.5856 20.4957 13.4878 20.3978L12.1511 19.0612C11.9554 18.8654 11.9554 18.5481 12.1511 18.3524C12.3469 18.1566 12.6642 18.1566 12.86 18.3524L14.1966 19.689C14.3923 19.8847 14.3923 20.2021 14.1966 20.3978C14.0987 20.4957 13.9704 20.5447 13.8422 20.5447ZM20.6814 24.1199L18.7357 22.1742C18.3597 21.7981 17.8497 21.5869 17.318 21.5869H14.2745C13.5158 21.5869 12.8025 21.8824 12.2661 22.4188L12.1059 22.579L12.0955 22.5894H3.36393C3.08712 22.5894 2.8627 22.8138 2.8627 23.0906V28.4371C2.8627 28.7139 3.08712 28.9383 3.36393 28.9383H10.6252L11.8151 30.1281C11.9091 30.2221 12.0365 30.2749 12.1695 30.2749H12.6233C12.4553 30.0149 12.3472 29.7245 12.3049 29.4204C11.9302 29.2985 11.593 29.0735 11.3333 28.764C10.5783 27.8641 10.696 26.5178 11.5958 25.7628L13.5009 24.1643H17.3048C17.4377 24.1643 17.5652 24.2171 17.6592 24.3111L19.0587 25.7106C19.5082 26.1601 20.2534 26.1697 20.6952 25.7126C21.1244 25.2686 21.1198 24.5582 20.6814 24.1199ZM28.4654 23.6255C28.7422 23.6255 28.9666 23.8498 28.9666 24.1267L28.9666 29.4732C28.9667 29.75 28.7423 29.9744 28.4654 29.9744H22.0785L18.6737 32.8314C18.1965 33.2318 17.4852 33.1696 17.0848 32.6924C16.6845 32.2153 16.7467 31.5039 17.2238 31.1036L16.4559 31.748C15.9787 32.1483 15.2674 32.0861 14.867 31.6089C14.4667 31.1318 14.5289 30.4205 15.0061 30.0201C14.5289 30.4205 13.8176 30.3582 13.4172 29.8811C13.0169 29.404 13.0791 28.6926 13.5562 28.2922C13.0791 28.6926 12.3677 28.6304 11.9674 28.1532C11.567 27.6761 11.6292 26.9647 12.1064 26.5644L13.378 25.4974L13.7717 25.167H17.097L18.3657 26.4357C18.7692 26.8393 19.3063 27.0615 19.8778 27.0615C20.4494 27.0615 20.9864 26.8393 21.3901 26.4357C22.1559 25.6699 22.2177 24.4633 21.5769 23.6255H28.4654Z" fill="#FFFAE5"/>
</g>
<path fill-rule="evenodd" clip-rule="evenodd" d="M13.4121 7.87085C12.2236 5.93082 10.0124 4.9863 7.90995 5.01558C6.08551 5.041 4.37749 5.80794 3.44699 7.17565C2.93872 7.92267 2.86395 8.56646 2.97995 9.08174C3.14667 9.82325 3.7895 10.4708 4.88906 10.8167C5.00533 10.8533 5.12766 10.8869 5.25521 10.9179C5.29905 10.9284 5.34468 10.9286 5.38853 10.9183L21.951 7.00357C21.9949 6.99313 22.0355 6.97265 22.07 6.94351C22.1702 6.85884 22.2645 6.7739 22.3522 6.6891C23.1805 5.88752 23.4654 5.02066 23.2826 4.28313C23.1554 3.77033 22.8004 3.22825 22.0115 2.78774C20.5671 1.98149 18.6965 2.06038 17.0537 2.8544C15.1606 3.7695 13.6062 5.60411 13.4121 7.87085ZM11.3734 8.87529C10.5885 7.76144 9.22021 7.25042 7.94129 7.26815C6.88077 7.283 5.85048 7.64791 5.3095 8.44303C5.28228 8.48289 5.25823 8.52096 5.23775 8.5578C5.33094 8.59862 5.44447 8.62982 5.56515 8.66775C7.04982 9.13493 9.70745 9.01233 11.3734 8.87529ZM21.029 4.82549C20.9943 4.80171 20.9556 4.77835 20.9134 4.75484C20.0738 4.28616 18.9891 4.42113 18.0343 4.88267C16.8825 5.43945 15.8878 6.50905 15.6846 7.85628C17.2358 7.23297 19.6671 6.15265 20.7855 5.07042C20.8765 4.98231 20.964 4.90356 21.029 4.82549Z" fill="#FFDA33"/>
<path fill-rule="evenodd" clip-rule="evenodd" d="M10.3062 9.16738L2.88959 10.9204C1.39392 11.274 0.466579 12.7753 0.820087 14.2711L0.962342 14.8728C1.31585 16.3687 2.81716 17.296 4.31297 16.9425L11.7296 15.1895L10.3062 9.16738ZM17.637 13.7932L12.2869 15.0577L10.8636 9.03571L16.2137 7.77122L17.637 13.7932ZM16.7711 7.63941L18.1943 13.6615L25.6111 11.9084C27.1068 11.5549 28.0341 10.0536 27.6806 8.55782L27.5383 7.95595C27.1848 6.46027 25.6834 5.53294 24.1877 5.88644L16.7711 7.63941Z" fill="#FFD100"/>
</g>
<path d="M46.524 29.5V11.02H59.488V13.12H48.764V19.084H57.108V21.184H48.764V27.4H59.908V29.5H46.524ZM69.5719 15.22C70.5426 15.22 71.3919 15.3693 72.1199 15.668C72.8666 15.9667 73.5106 16.396 74.0519 16.956C74.5933 17.516 75.0319 18.1787 75.3679 18.944L73.2399 19.952C72.9413 19.056 72.4839 18.3747 71.8679 17.908C71.2706 17.4227 70.4866 17.18 69.5159 17.18C68.5826 17.18 67.7799 17.3947 67.1079 17.824C66.4359 18.2347 65.9226 18.8413 65.5679 19.644C65.2133 20.428 65.0359 21.38 65.0359 22.5C65.0359 23.6013 65.2133 24.5533 65.5679 25.356C65.9226 26.1587 66.4359 26.7747 67.1079 27.204C67.7799 27.6147 68.5826 27.82 69.5159 27.82C70.2439 27.82 70.8693 27.708 71.3919 27.484C71.9333 27.26 72.3719 26.9333 72.7079 26.504C73.0626 26.0747 73.3053 25.552 73.4359 24.936L75.5079 25.664C75.1906 26.5227 74.7519 27.26 74.1919 27.876C73.6506 28.492 72.9879 28.968 72.2039 29.304C71.4386 29.6213 70.5613 29.78 69.5719 29.78C68.2653 29.78 67.0986 29.4907 66.0719 28.912C65.0453 28.3333 64.2426 27.5027 63.6639 26.42C63.0853 25.3187 62.7959 24.012 62.7959 22.5C62.7959 20.988 63.0853 19.6907 63.6639 18.608C64.2426 17.5067 65.0453 16.6667 66.0719 16.088C67.0986 15.5093 68.2653 15.22 69.5719 15.22ZM79.7799 29.5V9.06H82.0199V17.6C82.5052 16.76 83.1492 16.1533 83.9519 15.78C84.7546 15.4067 85.6319 15.22 86.5839 15.22C87.5919 15.22 88.5066 15.416 89.3279 15.808C90.1492 16.1813 90.8026 16.76 91.2879 17.544C91.7919 18.328 92.0439 19.3267 92.0439 20.54V29.5H89.8039V21.324C89.8039 19.7747 89.4679 18.7013 88.7959 18.104C88.1426 17.488 87.3306 17.18 86.3599 17.18C85.6879 17.18 85.0159 17.3387 84.3439 17.656C83.6719 17.9733 83.1119 18.496 82.6639 19.224C82.2346 19.9333 82.0199 20.8853 82.0199 22.08V29.5H79.7799ZM103.248 15.22C104.573 15.22 105.74 15.5093 106.748 16.088C107.775 16.6667 108.577 17.5067 109.156 18.608C109.735 19.6907 110.024 20.988 110.024 22.5C110.024 24.012 109.735 25.3187 109.156 26.42C108.577 27.5027 107.775 28.3333 106.748 28.912C105.74 29.4907 104.573 29.78 103.248 29.78C101.941 29.78 100.775 29.4907 99.7478 28.912C98.7212 28.3333 97.9185 27.5027 97.3398 26.42C96.7612 25.3187 96.4718 24.012 96.4718 22.5C96.4718 20.988 96.7612 19.6907 97.3398 18.608C97.9185 17.5067 98.7212 16.6667 99.7478 16.088C100.775 15.5093 101.941 15.22 103.248 15.22ZM103.248 17.152C102.296 17.152 101.484 17.3667 100.812 17.796C100.14 18.2253 99.6172 18.8413 99.2438 19.644C98.8892 20.428 98.7118 21.38 98.7118 22.5C98.7118 23.6013 98.8892 24.5533 99.2438 25.356C99.6172 26.1587 100.14 26.7747 100.812 27.204C101.484 27.6333 102.296 27.848 103.248 27.848C104.2 27.848 105.012 27.6333 105.684 27.204C106.356 26.7747 106.869 26.1587 107.224 25.356C107.597 24.5533 107.784 23.6013 107.784 22.5C107.784 21.38 107.597 20.428 107.224 19.644C106.869 18.8413 106.356 18.2253 105.684 17.796C105.012 17.3667 104.2 17.152 103.248 17.152ZM122.529 11.02C124.62 11.02 126.262 11.524 127.457 12.532C128.652 13.54 129.249 14.8933 129.249 16.592C129.249 18.4027 128.652 19.7933 127.457 20.764C126.262 21.716 124.629 22.192 122.557 22.192L122.165 22.416H118.189V29.5H114.381V11.02H122.529ZM122.081 19.476C123.164 19.476 123.966 19.2613 124.489 18.832C125.03 18.384 125.301 17.7027 125.301 16.788C125.301 15.8733 125.03 15.2013 124.489 14.772C123.966 14.324 123.164 14.1 122.081 14.1H118.189V19.476H122.081ZM124.349 20.288L130.341 29.5H126.001L121.045 21.408L124.349 20.288ZM139.579 29.78C138.104 29.78 136.816 29.4907 135.715 28.912C134.632 28.3333 133.792 27.5027 133.195 26.42C132.597 25.3373 132.299 24.0307 132.299 22.5C132.299 20.9693 132.597 19.6627 133.195 18.58C133.792 17.4973 134.623 16.6667 135.687 16.088C136.769 15.5093 138.001 15.22 139.383 15.22C140.801 15.22 142.005 15.5093 142.995 16.088C143.984 16.648 144.74 17.4227 145.263 18.412C145.785 19.3827 146.047 20.4933 146.047 21.744C146.047 22.1173 146.037 22.472 146.019 22.808C146 23.144 145.972 23.4427 145.935 23.704H134.763V21.044H144.255L142.407 21.716C142.407 20.54 142.136 19.6347 141.595 19C141.072 18.3653 140.325 18.048 139.355 18.048C138.645 18.048 138.029 18.216 137.507 18.552C137.003 18.888 136.62 19.392 136.359 20.064C136.097 20.7173 135.967 21.548 135.967 22.556C135.967 23.5453 136.107 24.3667 136.387 25.02C136.685 25.6547 137.096 26.1307 137.619 26.448C138.16 26.7653 138.804 26.924 139.551 26.924C140.372 26.924 141.035 26.7653 141.539 26.448C142.043 26.1307 142.435 25.692 142.715 25.132L145.767 26.308C145.468 27.036 145.011 27.6613 144.395 28.184C143.797 28.7067 143.079 29.108 142.239 29.388C141.417 29.6493 140.531 29.78 139.579 29.78ZM167.311 15.5H171.399L166.919 29.5H162.495L159.443 19.98L156.503 29.5H152.079L147.599 15.5H151.687L154.487 26.224L157.595 15.5H161.403L164.539 26.224L167.311 15.5ZM181.875 20.568C181.875 19.7653 181.642 19.14 181.175 18.692C180.727 18.244 180.13 18.02 179.383 18.02C178.693 18.02 178.086 18.1973 177.563 18.552C177.041 18.9067 176.658 19.4947 176.415 20.316L173.139 19.308C173.457 18.076 174.147 17.0867 175.211 16.34C176.294 15.5933 177.741 15.22 179.551 15.22C180.783 15.22 181.857 15.416 182.771 15.808C183.686 16.1813 184.395 16.7507 184.899 17.516C185.422 18.2813 185.683 19.2427 185.683 20.4V26.084C185.683 26.7933 186.019 27.148 186.691 27.148C187.009 27.148 187.307 27.1013 187.587 27.008L187.363 29.388C186.878 29.6307 186.271 29.752 185.543 29.752C184.89 29.752 184.302 29.64 183.779 29.416C183.257 29.192 182.846 28.856 182.547 28.408C182.249 27.9413 182.099 27.3627 182.099 26.672V26.56L182.771 26.448C182.659 27.1573 182.351 27.764 181.847 28.268C181.343 28.7533 180.727 29.1267 179.999 29.388C179.29 29.6493 178.553 29.78 177.787 29.78C176.835 29.78 176.014 29.64 175.323 29.36C174.633 29.0613 174.101 28.632 173.727 28.072C173.354 27.512 173.167 26.8213 173.167 26C173.167 24.9547 173.503 24.1053 174.175 23.452C174.847 22.78 175.809 22.3227 177.059 22.08L182.323 21.016L182.295 23.396L178.935 24.068C178.301 24.1987 177.815 24.376 177.479 24.6C177.162 24.8053 177.003 25.1507 177.003 25.636C177.003 26.1027 177.171 26.4573 177.507 26.7C177.862 26.9427 178.282 27.064 178.767 27.064C179.159 27.064 179.542 27.0173 179.915 26.924C180.289 26.8307 180.625 26.6813 180.923 26.476C181.222 26.2707 181.455 25.9907 181.623 25.636C181.791 25.2813 181.875 24.852 181.875 24.348V20.568ZM190.309 29.5V15.5H193.641L193.893 18.244C194.267 17.2733 194.808 16.5267 195.517 16.004C196.245 15.4813 197.151 15.22 198.233 15.22C198.551 15.22 198.84 15.248 199.101 15.304C199.363 15.36 199.577 15.4347 199.745 15.528L199.297 18.748C199.111 18.6733 198.877 18.6173 198.597 18.58C198.336 18.5427 197.991 18.524 197.561 18.524C197.001 18.524 196.46 18.664 195.937 18.944C195.415 19.2053 194.985 19.616 194.649 20.176C194.313 20.7173 194.145 21.408 194.145 22.248V29.5H190.309ZM207.477 29.78C206.319 29.78 205.283 29.4907 204.369 28.912C203.473 28.3333 202.763 27.5027 202.241 26.42C201.737 25.3373 201.485 24.04 201.485 22.528C201.485 20.9787 201.755 19.6627 202.297 18.58C202.838 17.4787 203.566 16.648 204.481 16.088C205.414 15.5093 206.459 15.22 207.617 15.22C208.849 15.22 209.866 15.5747 210.669 16.284C211.471 16.9933 211.994 17.908 212.237 19.028L211.873 19.476V9.368H215.709V29.5H212.265L212.013 25.244L212.489 25.468C212.358 26.3453 212.059 27.1107 211.593 27.764C211.126 28.3987 210.538 28.8933 209.829 29.248C209.119 29.6027 208.335 29.78 207.477 29.78ZM208.597 26.84C209.269 26.84 209.847 26.672 210.333 26.336C210.818 25.9813 211.191 25.468 211.453 24.796C211.733 24.124 211.873 23.3213 211.873 22.388C211.873 21.492 211.742 20.736 211.481 20.12C211.219 19.4853 210.846 19 210.361 18.664C209.875 18.328 209.306 18.16 208.653 18.16C207.607 18.16 206.786 18.5333 206.189 19.28C205.61 20.008 205.321 21.0813 205.321 22.5C205.321 23.9187 205.61 25.0013 206.189 25.748C206.767 26.476 207.57 26.84 208.597 26.84ZM225.675 29.78C224.257 29.78 222.959 29.528 221.783 29.024C220.626 28.52 219.683 27.8107 218.955 26.896L221.167 24.656C221.615 25.328 222.213 25.8787 222.959 26.308C223.706 26.7373 224.593 26.952 225.619 26.952C226.347 26.952 226.926 26.8493 227.355 26.644C227.803 26.42 228.027 26.0747 228.027 25.608C228.027 25.3093 227.925 25.0573 227.719 24.852C227.514 24.628 227.103 24.4507 226.487 24.32L224.023 23.816C222.399 23.48 221.242 22.976 220.551 22.304C219.879 21.6133 219.543 20.7267 219.543 19.644C219.543 18.8787 219.767 18.16 220.215 17.488C220.682 16.816 221.373 16.2747 222.287 15.864C223.202 15.4347 224.341 15.22 225.703 15.22C227.103 15.22 228.317 15.444 229.343 15.892C230.389 16.3213 231.21 16.9653 231.807 17.824L229.511 20.064C229.101 19.4107 228.559 18.916 227.887 18.58C227.234 18.2253 226.543 18.048 225.815 18.048C225.293 18.048 224.845 18.104 224.471 18.216C224.098 18.328 223.818 18.4867 223.631 18.692C223.445 18.8787 223.351 19.1213 223.351 19.42C223.351 19.7187 223.482 19.98 223.743 20.204C224.005 20.4093 224.481 20.5867 225.171 20.736L228.027 21.324C229.409 21.604 230.398 22.08 230.995 22.752C231.593 23.4053 231.891 24.1987 231.891 25.132C231.891 26.028 231.649 26.8307 231.163 27.54C230.697 28.2307 229.997 28.7813 229.063 29.192C228.149 29.584 227.019 29.78 225.675 29.78Z" fill="#1E1E1E"/>
<defs>
<clipPath id="clip0_809_177">
<rect width="37" height="40" fill="white" transform="translate(0.5)"/>
</clipPath>
<clipPath id="clip1_809_177">
<rect width="25.2223" height="21.3419" fill="white" transform="translate(3.39024 13.6844)"/>
</clipPath>
</defs>
</svg>
