<svg width="159" height="25" viewBox="0 0 159 25" fill="none" xmlns="http://www.w3.org/2000/svg">
<g clip-path="url(#clip0)">
<path d="M25.2955 8.50591L17.7726 7.41258L14.4096 0.594801C14.3177 0.408135 14.1666 0.257023 13.98 0.165172C13.5118 -0.0659395 12.9429 0.126653 12.7089 0.594801L9.34589 7.41258L1.82293 8.50591C1.61552 8.53554 1.42589 8.63332 1.28071 8.78147C1.10519 8.96187 1.00847 9.20458 1.0118 9.45626C1.01514 9.70794 1.11825 9.948 1.29849 10.1237L6.74145 15.4304L5.45552 22.9237C5.42537 23.098 5.44466 23.2773 5.5112 23.4412C5.57775 23.6051 5.68889 23.7471 5.83202 23.851C5.97516 23.955 6.14455 24.0168 6.321 24.0293C6.49746 24.0419 6.6739 24.0048 6.83034 23.9222L13.5592 20.3844L20.2881 23.9222C20.4718 24.02 20.6852 24.0526 20.8896 24.017C21.4052 23.9281 21.7518 23.4392 21.6629 22.9237L20.377 15.4304L25.82 10.1237C25.9681 9.97851 26.0659 9.78887 26.0955 9.58147C26.1755 9.06295 25.814 8.58295 25.2955 8.50591Z" fill="#FFBA08"/>
</g>
<g clip-path="url(#clip1)">
<path d="M58.4205 8.50591L50.8976 7.41258L47.5346 0.594801C47.4427 0.408135 47.2916 0.257023 47.105 0.165172C46.6368 -0.0659395 46.0679 0.126653 45.8339 0.594801L42.4709 7.41258L34.9479 8.50591C34.7405 8.53554 34.5509 8.63332 34.4057 8.78147C34.2302 8.96187 34.1335 9.20458 34.1368 9.45626C34.1401 9.70794 34.2432 9.948 34.4235 10.1237L39.8664 15.4304L38.5805 22.9237C38.5504 23.098 38.5697 23.2773 38.6362 23.4412C38.7028 23.6051 38.8139 23.7471 38.957 23.851C39.1002 23.955 39.2696 24.0168 39.446 24.0293C39.6225 24.0419 39.7989 24.0048 39.9553 23.9222L46.6842 20.3844L53.4131 23.9222C53.5968 24.02 53.8102 24.0526 54.0146 24.017C54.5302 23.9281 54.8768 23.4392 54.7879 22.9237L53.502 15.4304L58.945 10.1237C59.0931 9.97851 59.1909 9.78887 59.2205 9.58147C59.3005 9.06295 58.939 8.58295 58.4205 8.50591Z" fill="#FFBA08"/>
</g>
<g clip-path="url(#clip2)">
<path d="M91.5475 8.50591L84.0245 7.41258L80.6616 0.594801C80.5697 0.408135 80.4186 0.257023 80.2319 0.165172C79.7638 -0.0659395 79.1949 0.126653 78.9608 0.594801L75.5978 7.41258L68.0749 8.50591C67.8675 8.53554 67.6778 8.63332 67.5327 8.78147C67.3571 8.96187 67.2604 9.20458 67.2638 9.45626C67.2671 9.70794 67.3702 9.948 67.5504 10.1237L72.9934 15.4304L71.7075 22.9237C71.6773 23.098 71.6966 23.2773 71.7632 23.4412C71.8297 23.6051 71.9408 23.7471 72.084 23.851C72.2271 23.955 72.3965 24.0168 72.573 24.0293C72.7494 24.0419 72.9259 24.0048 73.0823 23.9222L79.8112 20.3844L86.5401 23.9222C86.7238 24.02 86.9371 24.0526 87.1416 24.017C87.6571 23.9281 88.0038 23.4392 87.9149 22.9237L86.629 15.4304L92.0719 10.1237C92.2201 9.97851 92.3178 9.78887 92.3475 9.58147C92.4275 9.06295 92.066 8.58295 91.5475 8.50591Z" fill="#FFBA08"/>
</g>
<g clip-path="url(#clip3)">
<path d="M124.672 8.50591L117.15 7.41258L113.787 0.594801C113.695 0.408135 113.544 0.257023 113.357 0.165172C112.889 -0.0659395 112.32 0.126653 112.086 0.594801L108.723 7.41258L101.2 8.50591C100.992 8.53554 100.803 8.63332 100.658 8.78147C100.482 8.96187 100.385 9.20458 100.389 9.45626C100.392 9.70794 100.495 9.948 100.675 10.1237L106.118 15.4304L104.832 22.9237C104.802 23.098 104.822 23.2773 104.888 23.4412C104.955 23.6051 105.066 23.7471 105.209 23.851C105.352 23.955 105.522 24.0168 105.698 24.0293C105.874 24.0419 106.051 24.0048 106.207 23.9222L112.936 20.3844L119.665 23.9222C119.849 24.02 120.062 24.0526 120.267 24.017C120.782 23.9281 121.129 23.4392 121.04 22.9237L119.754 15.4304L125.197 10.1237C125.345 9.97851 125.443 9.78887 125.472 9.58147C125.552 9.06295 125.191 8.58295 124.672 8.50591Z" fill="#FFBA08"/>
</g>
<g clip-path="url(#clip4)">
<path d="M157.799 8.50591L150.276 7.41258L146.914 0.594801C146.822 0.408135 146.671 0.257023 146.484 0.165172C146.016 -0.0659395 145.447 0.126653 145.213 0.594801L141.85 7.41258L134.327 8.50591C134.119 8.53554 133.93 8.63332 133.785 8.78147C133.609 8.96187 133.512 9.20458 133.516 9.45626C133.519 9.70794 133.622 9.948 133.802 10.1237L139.245 15.4304L137.959 22.9237C137.929 23.098 137.949 23.2773 138.015 23.4412C138.082 23.6051 138.193 23.7471 138.336 23.851C138.479 23.955 138.648 24.0168 138.825 24.0293C139.001 24.0419 139.178 24.0048 139.334 23.9222L146.063 20.3844L152.792 23.9222C152.976 24.02 153.189 24.0526 153.394 24.017C153.909 23.9281 154.256 23.4392 154.167 22.9237L152.881 15.4304L158.324 10.1237C158.472 9.97851 158.57 9.78887 158.599 9.58147C158.679 9.06295 158.318 8.58295 157.799 8.50591Z" fill="#FFBA08"/>
</g>
<defs>
<clipPath id="clip0">
<rect width="25.1259" height="24" fill="white" transform="translate(0.996094 0.0576172)"/>
</clipPath>
<clipPath id="clip1">
<rect width="25.1259" height="24" fill="white" transform="translate(34.1211 0.0576172)"/>
</clipPath>
<clipPath id="clip2">
<rect width="25.1259" height="24" fill="white" transform="translate(67.248 0.0576172)"/>
</clipPath>
<clipPath id="clip3">
<rect width="25.1259" height="24" fill="white" transform="translate(100.373 0.0576172)"/>
</clipPath>
<clipPath id="clip4">
<rect width="25.1259" height="24" fill="white" transform="translate(133.5 0.0576172)"/>
</clipPath>
</defs>
</svg>
