<?xml version="1.0" encoding="utf-8"?>
<!-- Generator: Adobe Illustrator 27.0.0, SVG Export Plug-In . SVG Version: 6.00 Build 0)  -->
<svg version="1.1" id="Layer_1" xmlns="http://www.w3.org/2000/svg" xmlns:xlink="http://www.w3.org/1999/xlink" x="0px" y="0px"
	 viewBox="0 0 224 52" style="enable-background:new 0 0 224 52;" xml:space="preserve">
<style type="text/css">
	.st0{fill:#180C26;}
	.st1{fill:url(#SVGID_1_);}
	.st2{fill:#F8F3FF;}
	.st3{fill:#F8F3FF;filter:url(#Adobe_OpacityMaskFilter);}
	.st4{mask:url(#mask0_1704_285_00000153699077274060235870000001367549697034583708_);}
	.st5{fill:#7137B6;}
	.st6{fill:#34A853;}
	.st7{fill-rule:evenodd;clip-rule:evenodd;fill:#FFFFFF;}
	.st8{fill:none;stroke:#FFFFFF;stroke-width:1.6279;stroke-linecap:round;stroke-linejoin:round;}
</style>
<path class="st0" d="M68.4,41V16.3h15.8V20H72.9v6.7h10.3v3.8H72.9V41H68.4z M92,16.3V41h-4.4V16.3H92z M104.2,41.4
	c-1.9,0-3.5-0.4-4.8-1.2c-1.3-0.8-2.4-1.9-3.1-3.3c-0.7-1.4-1.1-3.1-1.1-5.1c0-1.9,0.4-3.6,1.1-5c0.7-1.4,1.8-2.6,3.1-3.4
	c1.3-0.8,2.9-1.2,4.6-1.2c1.1,0,2.2,0.2,3.2,0.6c1,0.4,1.9,0.9,2.7,1.7c0.8,0.8,1.4,1.7,1.9,2.9c0.5,1.2,0.7,2.6,0.7,4.2v1.3H97.3
	V30h11c0-0.8-0.2-1.6-0.5-2.2c-0.4-0.7-0.8-1.2-1.5-1.6c-0.6-0.4-1.4-0.6-2.2-0.6c-0.9,0-1.7,0.2-2.4,0.7c-0.7,0.4-1.2,1-1.6,1.7
	c-0.4,0.7-0.6,1.5-0.6,2.3v2.6c0,1.1,0.2,2,0.6,2.8c0.4,0.8,0.9,1.4,1.7,1.8c0.7,0.4,1.5,0.6,2.5,0.6c0.6,0,1.2-0.1,1.7-0.3
	c0.5-0.2,1-0.5,1.3-0.8c0.4-0.4,0.7-0.8,0.9-1.3l4.1,0.5c-0.3,1.1-0.7,2-1.5,2.8c-0.7,0.8-1.6,1.4-2.8,1.9
	C106.9,41.1,105.7,41.4,104.2,41.4z M118.8,22.5l3.7,6.8l3.8-6.8h4.6l-5.6,9.3l5.7,9.3h-4.6l-3.9-6.7l-3.9,6.7h-4.6l5.7-9.3
	l-5.5-9.3H118.8z M156.2,28.6c0,2.7-0.5,4.9-1.5,6.8c-1,1.9-2.3,3.3-4.1,4.3c-1.7,1-3.6,1.5-5.8,1.5c-2.2,0-4.1-0.5-5.8-1.5
	c-1.7-1-3.1-2.5-4.1-4.4c-1-1.9-1.5-4.2-1.5-6.8c0-2.7,0.5-4.9,1.5-6.8c1-1.9,2.4-3.4,4.1-4.4c1.7-1,3.7-1.5,5.8-1.5
	c2.2,0,4.1,0.5,5.8,1.5c1.7,1,3.1,2.5,4.1,4.4C155.7,23.7,156.2,26,156.2,28.6z M151.7,28.6c0-1.9-0.3-3.5-0.9-4.7
	c-0.6-1.3-1.4-2.3-2.4-2.9c-1-0.7-2.2-1-3.6-1c-1.3,0-2.5,0.3-3.6,1c-1,0.7-1.8,1.6-2.4,2.9c-0.6,1.3-0.9,2.9-0.9,4.7
	c0,1.9,0.3,3.5,0.9,4.8c0.6,1.3,1.4,2.3,2.4,2.9c1,0.7,2.2,1,3.6,1c1.3,0,2.5-0.3,3.6-1c1-0.7,1.8-1.6,2.4-2.9
	C151.4,32.1,151.7,30.5,151.7,28.6z M159.7,41V22.5h4.2v3.1h0.2c0.3-1.1,0.9-1.9,1.7-2.5c0.8-0.6,1.8-0.9,2.8-0.9c0.2,0,0.5,0,0.8,0
	c0.3,0,0.6,0,0.8,0.1v4c-0.2-0.1-0.5-0.1-0.9-0.2c-0.4-0.1-0.8-0.1-1.1-0.1c-0.8,0-1.5,0.2-2.1,0.5c-0.6,0.3-1.1,0.8-1.5,1.4
	c-0.4,0.6-0.5,1.3-0.5,2.1V41H159.7z M178.8,41.3c-1.5,0-2.8-0.4-3.9-1.1s-2.1-1.8-2.7-3.3c-0.7-1.4-1-3.2-1-5.2
	c0-2.1,0.3-3.8,1-5.2c0.7-1.4,1.6-2.5,2.8-3.2c1.2-0.7,2.5-1.1,3.9-1.1c1.1,0,2,0.2,2.7,0.6c0.7,0.4,1.3,0.8,1.7,1.3
	c0.4,0.5,0.7,1,1,1.4h0.2v-9.2h4.4V41h-4.3v-2.9h-0.3c-0.2,0.5-0.6,0.9-1,1.4c-0.4,0.5-1,0.9-1.7,1.3
	C180.7,41.1,179.8,41.3,178.8,41.3z M180,37.7c0.9,0,1.7-0.2,2.4-0.7c0.7-0.5,1.1-1.2,1.5-2.1c0.3-0.9,0.5-2,0.5-3.2
	c0-1.2-0.2-2.2-0.5-3.1c-0.3-0.9-0.8-1.6-1.5-2.1c-0.6-0.5-1.4-0.7-2.4-0.7c-1,0-1.8,0.3-2.4,0.8c-0.7,0.5-1.1,1.2-1.5,2.1
	c-0.3,0.9-0.5,1.9-0.5,3.1c0,1.2,0.2,2.2,0.5,3.1c0.3,0.9,0.8,1.6,1.5,2.1C178.2,37.5,179,37.7,180,37.7z M201,41.4
	c-1.9,0-3.5-0.4-4.8-1.2c-1.3-0.8-2.4-1.9-3.1-3.3c-0.7-1.4-1.1-3.1-1.1-5.1c0-1.9,0.4-3.6,1.1-5c0.7-1.4,1.8-2.6,3.1-3.4
	c1.3-0.8,2.9-1.2,4.6-1.2c1.1,0,2.2,0.2,3.2,0.6c1,0.4,1.9,0.9,2.7,1.7c0.8,0.8,1.4,1.7,1.9,2.9c0.5,1.2,0.7,2.6,0.7,4.2v1.3h-15.2
	V30h11c0-0.8-0.2-1.6-0.5-2.2c-0.4-0.7-0.8-1.2-1.5-1.6c-0.6-0.4-1.4-0.6-2.2-0.6c-0.9,0-1.7,0.2-2.4,0.7c-0.7,0.4-1.2,1-1.6,1.7
	c-0.4,0.7-0.6,1.5-0.6,2.3v2.6c0,1.1,0.2,2,0.6,2.8c0.4,0.8,0.9,1.4,1.7,1.8c0.7,0.4,1.5,0.6,2.5,0.6c0.6,0,1.2-0.1,1.7-0.3
	c0.5-0.2,1-0.5,1.3-0.8c0.4-0.4,0.7-0.8,0.9-1.3l4.1,0.5c-0.3,1.1-0.7,2-1.5,2.8c-0.7,0.8-1.6,1.4-2.8,1.9
	C203.7,41.1,202.5,41.4,201,41.4z M212.5,41V22.5h4.2v3.1h0.2c0.3-1.1,0.9-1.9,1.7-2.5c0.8-0.6,1.8-0.9,2.8-0.9c0.2,0,0.5,0,0.8,0
	c0.3,0,0.6,0,0.8,0.1v4c-0.2-0.1-0.5-0.1-0.9-0.2c-0.4-0.1-0.8-0.1-1.1-0.1c-0.8,0-1.5,0.2-2.1,0.5c-0.6,0.3-1.1,0.8-1.5,1.4
	c-0.4,0.6-0.5,1.3-0.5,2.1V41H212.5z"/>
<g>
	
		<linearGradient id="SVGID_1_" gradientUnits="userSpaceOnUse" x1="19.8716" y1="59.1134" x2="33.0161" y2="-7.62" gradientTransform="matrix(1 0 0 -1 0 54)">
		<stop  offset="0" style="stop-color:#7B4CB4"/>
		<stop  offset="1" style="stop-color:#5D0EBC"/>
	</linearGradient>
	<path class="st1" d="M43.3,0H8.7C3.9,0,0,3.9,0,8.7v34.7C0,48.1,3.9,52,8.7,52h34.7c4.8,0,8.7-3.9,8.7-8.7V8.7
		C52,3.9,48.1,0,43.3,0z"/>
	<path class="st2" d="M26,39.9c7.7,0,13.9-6.2,13.9-13.9S33.7,12.1,26,12.1c-7.7,0-13.9,6.2-13.9,13.9S18.3,39.9,26,39.9z"/>
	<defs>
		<filter id="Adobe_OpacityMaskFilter" filterUnits="userSpaceOnUse" x="16" y="16" width="21.3" height="27.1">
			<feColorMatrix  type="matrix" values="1 0 0 0 0  0 1 0 0 0  0 0 1 0 0  0 0 0 1 0"/>
		</filter>
	</defs>
	
		<mask maskUnits="userSpaceOnUse" x="16" y="16" width="21.3" height="27.1" id="mask0_1704_285_00000153699077274060235870000001367549697034583708_">
		<path class="st3" d="M26,39.9c7.7,0,13.9-6.2,13.9-13.9S33.7,12.1,26,12.1S12.1,18.3,12.1,26S18.3,39.9,26,39.9z"/>
	</mask>
	<g class="st4">
		<path class="st5" d="M32.3,29c0,0.3-0.2,0.6-0.5,0.8l-7.2,4c-0.1,0.1-0.3,0.2-0.5,0.2c-0.2,0-0.4-0.1-0.5-0.2l-7.2-4
			c-0.1-0.1-0.3-0.2-0.4-0.3C16.1,29.3,16,29.1,16,29v-8c0-0.3,0.2-0.6,0.5-0.8l7.2-4c0.1-0.1,0.3-0.2,0.5-0.2
			c0.2,0,0.4,0.1,0.5,0.2l7.2,4c0.3,0.2,0.5,0.4,0.5,0.8V29z M24.2,18l-1.7,1l5.3,3l1.8-1L24.2,18z M18.8,20.9l5.4,3l1.8-1l-5.3-3
			L18.8,20.9z M17.8,28.4l5.4,3v-6l-5.4-3V28.4z M30.5,28.4v-6l-5.4,3v6L30.5,28.4z"/>
		<path class="st2" d="M22.7,26.1c0.2-0.7,0.9-1.1,1.6-1l11.9,3.2c0.7,0.2,1.1,0.9,1,1.7L34,42.2c-0.2,0.7-0.9,1.1-1.6,1l-11.9-3.2
			c-0.7-0.2-1.1-0.9-1-1.7L22.7,26.1z"/>
		<path class="st6" d="M23.7,27.7c0.2-0.6,0.8-1,1.4-0.8l9.6,2.6c0.6,0.2,1,0.8,0.8,1.4l-2.8,10.5c-0.2,0.6-0.8,1-1.4,0.8l-9.6-2.6
			c-0.6-0.2-1-0.8-0.8-1.4L23.7,27.7z"/>
		<path class="st7" d="M27.7,36.4C27.7,36.4,27.8,36.4,27.7,36.4c0.1,0,0.1,0,0.1,0l3.2,0.9c0.3,0.1,0.6-0.1,0.7-0.4
			c0-0.1,0-0.1,0-0.2l0.6-2.2c0,0,0,0,0-0.1c0,0,0,0,0-0.1l0.6-2.2c0,0,0,0,0-0.1c0,0,0-0.1,0-0.1c0-0.3-0.1-0.5-0.4-0.6
			c-0.1,0-0.1,0-0.2,0l-6.4-1.7c-0.3-0.1-0.6,0.1-0.7,0.4l0,0l-0.6,2.3l0,0l0,0l-0.7,2.4c-0.1,0.3,0.1,0.6,0.4,0.7c0,0,0,0,0.1,0
			L27.7,36.4z M31.8,32.3l-2.2-0.6l-0.3,1.3l2.2,0.6L31.8,32.3z M27.5,35.2l0.4-1.4l-2.2-0.6l-0.4,1.4L27.5,35.2z M30.8,36.1
			l-2.2-0.6l0.4-1.4l2.2,0.6L30.8,36.1z M28.5,31.5l-0.3,1.3L26,32.2l0.3-1.3L28.5,31.5z"/>
	</g>
	<path class="st8" d="M44.2,29v-3c0-10-8.2-18.2-18.3-18.2c-2.7,0-5.5,0.6-7.9,1.8c-2.5,1.2-4.6,2.9-6.4,5.1 M7.7,23v3
		c0,10,8.2,18.2,18.3,18.2c2.7,0,5.4-0.6,7.9-1.8c2.5-1.2,4.6-2.9,6.4-5"/>
	<path class="st8" d="M3.2,27.4L7.7,23"/>
	<path class="st8" d="M44.3,28.9l4.5-4.5"/>
</g>
</svg>
