<svg width="214" height="56" viewBox="0 0 214 56" fill="none" xmlns="http://www.w3.org/2000/svg">
<path d="M63.4389 40.4561V15.7288H79.2798V19.4838H67.9183V26.1969H78.1932V29.9519H67.9183V40.4561H63.4389ZM87.0284 15.7288V40.4561H82.6576V15.7288H87.0284ZM99.2231 40.8183C97.3637 40.8183 95.7579 40.432 94.4056 39.6592C93.0614 38.8785 92.0271 37.7757 91.3026 36.351C90.5782 34.9182 90.216 33.2319 90.216 31.2921C90.216 29.3844 90.5782 27.7101 91.3026 26.2693C92.0351 24.8205 93.0574 23.6936 94.3694 22.8886C95.6814 22.0757 97.2228 21.6692 98.9937 21.6692C100.137 21.6692 101.215 21.8543 102.229 22.2246C103.252 22.5868 104.153 23.1502 104.934 23.9149C105.723 24.6796 106.343 25.6536 106.793 26.8368C107.244 28.012 107.47 29.4126 107.47 31.0385V32.3787H92.2685V29.4327H103.28C103.272 28.5956 103.091 27.851 102.737 27.199C102.382 26.539 101.887 26.0198 101.251 25.6415C100.624 25.2632 99.8912 25.074 99.054 25.074C98.1606 25.074 97.3758 25.2913 96.6996 25.726C96.0235 26.1526 95.4963 26.7161 95.118 27.4163C94.7477 28.1086 94.5585 28.8692 94.5505 29.6983V32.27C94.5505 33.3486 94.7477 34.2743 95.1421 35.047C95.5365 35.8117 96.0879 36.3993 96.7962 36.8098C97.5046 37.2123 98.3336 37.4135 99.2834 37.4135C99.9193 37.4135 100.495 37.325 101.01 37.1479C101.525 36.9627 101.972 36.6931 102.35 36.3389C102.729 35.9848 103.014 35.5461 103.207 35.0229L107.288 35.4817C107.031 36.5603 106.54 37.502 105.815 38.307C105.099 39.1038 104.181 39.7236 103.063 40.1663C101.944 40.601 100.664 40.8183 99.2231 40.8183ZM113.833 21.9107L117.575 28.7565L121.379 21.9107H126.003L120.413 31.1834L126.1 40.4561H121.499L117.575 33.7793L113.688 40.4561H109.051L114.702 31.1834L109.196 21.9107H113.833ZM126.619 19.4838V15.7288H146.348V19.4838H138.705V40.4561H134.262V19.4838H126.619ZM152.261 40.8304C151.086 40.8304 150.027 40.6211 149.085 40.2026C148.152 39.776 147.411 39.1481 146.864 38.319C146.325 37.49 146.055 36.4677 146.055 35.2523C146.055 34.2059 146.248 33.3406 146.634 32.6564C147.021 31.9722 147.548 31.4249 148.216 31.0144C148.884 30.6038 149.637 30.2939 150.474 30.0847C151.319 29.8673 152.192 29.7104 153.094 29.6138C154.181 29.5011 155.062 29.4005 155.738 29.3119C156.414 29.2153 156.905 29.0705 157.211 28.8773C157.525 28.676 157.682 28.3662 157.682 27.9476V27.8751C157.682 26.9656 157.412 26.2613 156.873 25.7622C156.334 25.2632 155.557 25.0136 154.543 25.0136C153.472 25.0136 152.623 25.2471 151.995 25.7139C151.375 26.1808 150.957 26.7322 150.74 27.368L146.659 26.7885C146.981 25.6616 147.512 24.7198 148.252 23.9632C148.993 23.1985 149.898 22.627 150.969 22.2487C152.04 21.8624 153.223 21.6692 154.519 21.6692C155.412 21.6692 156.302 21.7738 157.187 21.9831C158.072 22.1924 158.881 22.5385 159.614 23.0215C160.346 23.4964 160.934 24.1443 161.377 24.9653C161.827 25.7864 162.053 26.8126 162.053 28.0442V40.4561H157.851V37.9085H157.706C157.441 38.4237 157.066 38.9066 156.583 39.3574C156.108 39.8001 155.509 40.1583 154.784 40.432C154.068 40.6976 153.227 40.8304 152.261 40.8304ZM153.396 37.6188C154.273 37.6188 155.034 37.4457 155.678 37.0996C156.322 36.7454 156.817 36.2786 157.163 35.699C157.517 35.1195 157.694 34.4876 157.694 33.8034V31.618C157.557 31.7307 157.324 31.8354 156.994 31.932C156.672 32.0286 156.31 32.1131 155.907 32.1855C155.505 32.258 155.106 32.3224 154.712 32.3787C154.317 32.435 153.975 32.4833 153.686 32.5236C153.034 32.6121 152.45 32.757 151.935 32.9582C151.42 33.1595 151.013 33.4412 150.715 33.8034C150.418 34.1576 150.269 34.6164 150.269 35.1798C150.269 35.9848 150.563 36.5925 151.15 37.003C151.738 37.4135 152.486 37.6188 153.396 37.6188ZM166.131 40.4561V15.7288H170.502V24.9774H170.683C170.908 24.5267 171.226 24.0477 171.637 23.5406C172.047 23.0255 172.602 22.5868 173.303 22.2246C174.003 21.8543 174.897 21.6692 175.983 21.6692C177.416 21.6692 178.708 22.0354 179.859 22.7679C181.018 23.4923 181.936 24.5669 182.612 25.9916C183.296 27.4083 183.638 29.1469 183.638 31.2075C183.638 33.244 183.304 34.9746 182.636 36.3993C181.968 37.824 181.058 38.9107 179.907 39.6592C178.756 40.4078 177.452 40.7821 175.995 40.7821C174.933 40.7821 174.051 40.605 173.351 40.2509C172.651 39.8967 172.087 39.4701 171.661 38.971C171.242 38.4639 170.916 37.985 170.683 37.5342H170.429V40.4561H166.131ZM170.417 31.1834C170.417 32.3827 170.586 33.4332 170.924 34.3347C171.27 35.2362 171.765 35.9405 172.409 36.4476C173.061 36.9466 173.85 37.1962 174.776 37.1962C175.742 37.1962 176.551 36.9386 177.203 36.4234C177.855 35.9002 178.346 35.1879 178.676 34.2864C179.014 33.3768 179.183 32.3425 179.183 31.1834C179.183 30.0323 179.018 29.0101 178.688 28.1166C178.358 27.2232 177.867 26.5229 177.215 26.0158C176.563 25.5087 175.75 25.2551 174.776 25.2551C173.842 25.2551 173.049 25.5006 172.397 25.9916C171.745 26.4826 171.25 27.1708 170.912 28.0563C170.582 28.9417 170.417 29.9841 170.417 31.1834ZM191.214 15.7288V40.4561H186.844V15.7288H191.214ZM203.409 40.8183C201.55 40.8183 199.944 40.432 198.592 39.6592C197.247 38.8785 196.213 37.7757 195.489 36.351C194.764 34.9182 194.402 33.2319 194.402 31.2921C194.402 29.3844 194.764 27.7101 195.489 26.2693C196.221 24.8205 197.243 23.6936 198.555 22.8886C199.868 22.0757 201.409 21.6692 203.18 21.6692C204.323 21.6692 205.401 21.8543 206.416 22.2246C207.438 22.5868 208.339 23.1502 209.12 23.9149C209.909 24.6796 210.529 25.6536 210.979 26.8368C211.43 28.012 211.656 29.4126 211.656 31.0385V32.3787H196.455V29.4327H207.466C207.458 28.5956 207.277 27.851 206.923 27.199C206.568 26.539 206.073 26.0198 205.438 25.6415C204.81 25.2632 204.077 25.074 203.24 25.074C202.347 25.074 201.562 25.2913 200.886 25.726C200.21 26.1526 199.682 26.7161 199.304 27.4163C198.934 28.1086 198.745 28.8692 198.737 29.6983V32.27C198.737 33.3486 198.934 34.2743 199.328 35.047C199.723 35.8117 200.274 36.3993 200.982 36.8098C201.691 37.2123 202.52 37.4135 203.47 37.4135C204.105 37.4135 204.681 37.325 205.196 37.1479C205.711 36.9627 206.158 36.6931 206.536 36.3389C206.915 35.9848 207.2 35.5461 207.394 35.0229L211.475 35.4817C211.217 36.5603 210.726 37.502 210.001 38.307C209.285 39.1038 208.368 39.7236 207.249 40.1663C206.13 40.601 204.85 40.8183 203.409 40.8183Z" fill="#0B0F1C"/>
<path d="M37.7009 23.5653C45.9976 23.6881 43.8014 24.6699 46.3636 26.1428L46.4856 12.2736H0V29.4566C0 38.9073 3.05024 46.6397 6.83253 46.6397H20.1316C19.7655 45.5351 19.8876 44.4304 19.8876 43.2031C19.8876 42.4667 19.8876 38.9073 20.8636 36.2071C22.6938 31.0522 26.8421 26.8792 32.0885 25.0382C33.9186 24.5472 35.7488 23.5653 37.7009 23.5653Z" fill="white"/>
<path d="M0 6.87321C0 3.0684 3.05024 0 6.83253 0H39.6531C43.4354 0 46.4856 3.0684 46.4856 6.87321V13.7464H0V6.87321Z" fill="#00B871"/>
<path d="M0 6.87321C0 3.0684 3.05024 0 6.83253 0H8.66268C12.445 0 15.4952 3.0684 15.4952 6.87321V13.7464H0V6.87321Z" fill="#13CC84"/>
<path d="M37.823 55.4767C45.1005 55.4767 51 49.542 51 42.2212C51 34.9004 45.1005 28.9657 37.823 28.9657C30.5456 28.9657 24.646 34.9004 24.646 42.2212C24.646 49.542 30.5456 55.4767 37.823 55.4767Z" fill="#13CC84"/>
<path d="M41.6051 38.5391C40.629 37.5572 39.4089 37.0662 38.0668 37.0662C35.6266 37.0662 33.5524 38.7845 32.9424 41.1165C32.9424 41.2392 32.6984 41.362 32.5764 41.362H30.7462C30.5022 41.362 30.3802 41.1165 30.3802 40.871C31.1122 37.3117 34.1625 34.4888 38.0668 34.4888C40.141 34.4888 42.0931 35.3479 43.4352 36.698L44.5333 35.5934C45.0213 35.1024 45.8754 35.4707 45.8754 36.0843V40.2574C45.8754 40.6256 45.5094 40.9938 45.1433 40.9938H40.995C40.385 40.9938 40.0189 40.1346 40.507 39.6437L41.6051 38.5391ZM30.9902 43.694H35.1386C35.7486 43.694 36.1146 44.5531 35.6266 45.0441L34.2845 46.3942C35.2606 47.376 36.4807 47.867 37.8228 47.867C40.263 47.867 42.3371 46.1487 42.9472 43.8167C42.9472 43.694 43.1912 43.5712 43.3132 43.5712H45.1433C45.3874 43.5712 45.5094 43.8167 45.5094 44.0622C44.7773 47.6215 41.7271 50.4444 37.8228 50.4444C35.7486 50.4444 33.7965 49.5853 32.4544 48.2352L31.3563 49.3398C30.8682 49.8308 30.0142 49.4625 30.0142 48.8489V44.6759C30.2582 44.0622 30.5022 43.694 30.9902 43.694Z" fill="white"/>
<path fill-rule="evenodd" clip-rule="evenodd" d="M0 6.38227C0 2.94566 2.92823 0 6.46651 0H40.1411C43.6794 0 46.4856 2.94566 46.4856 6.38227V23.3198V26.2655C43.9234 24.7927 40.9952 24.0562 37.823 24.0562C35.7488 24.0562 33.7966 24.4244 31.9665 25.0381H17.3254V32.6478H22.4498C21.7177 33.7524 21.2297 34.9797 20.7416 36.2071H17.3254V43.203H19.7655C19.8876 44.4304 20.0096 45.535 20.2536 46.7624H6.46651C2.92823 46.7624 0 43.8167 0 40.2574V6.38227ZM13.9091 25.1609V32.7705H3.53828V25.1609H13.9091ZM13.9091 36.2071H3.53828V40.2574C3.53828 41.8529 4.75837 43.203 6.46651 43.203H14.0311V36.2071H13.9091ZM43.0694 21.6015V13.9919H17.4474V21.6015H43.0694ZM13.9091 21.6015V13.9919H3.53828V21.6015H13.9091ZM13.9091 3.55934H6.46651C4.88038 3.55934 3.53828 4.7867 3.53828 6.505V10.5553H14.0311V3.55934H13.9091ZM43.0694 6.38227V10.4326H17.4474V3.55934H40.1411C41.7273 3.55934 43.0694 4.7867 43.0694 6.38227Z" fill="#243565"/>
</svg>
