<?xml version="1.0" encoding="utf-8"?>
<!-- Generator: Adobe Illustrator 27.0.0, SVG Export Plug-In . SVG Version: 6.00 Build 0)  -->
<svg version="1.1" id="Layer_1" xmlns="http://www.w3.org/2000/svg" xmlns:xlink="http://www.w3.org/1999/xlink" x="0px" y="0px"
	 viewBox="0 0 222 52" style="enable-background:new 0 0 222 52;" xml:space="preserve">
<style type="text/css">
	.st0{fill:#180C26;}
	.st1{fill:url(#SVGID_1_);}
	.st2{fill:#F8F3FF;}
	.st3{fill:#34A853;}
	.st4{fill-rule:evenodd;clip-rule:evenodd;fill:#FFFFFF;}
	.st5{fill:#FBFBFB;}
	.st6{fill:#FFFFFF;}
	.st7{fill:url(#SVGID_00000042011053325112918640000011567875331204538801_);}
</style>
<path class="st0" d="M65.4,41V16.3h15.8V20H69.9v6.7h10.3v3.8H69.9V41H65.4z M89,16.3V41h-4.4V16.3H89z M101.2,41.4
	c-1.9,0-3.5-0.4-4.8-1.2c-1.3-0.8-2.4-1.9-3.1-3.3c-0.7-1.4-1.1-3.1-1.1-5.1c0-1.9,0.4-3.6,1.1-5c0.7-1.4,1.8-2.6,3.1-3.4
	c1.3-0.8,2.9-1.2,4.6-1.2c1.1,0,2.2,0.2,3.2,0.6c1,0.4,1.9,0.9,2.7,1.7c0.8,0.8,1.4,1.7,1.9,2.9c0.5,1.2,0.7,2.6,0.7,4.2v1.3H94.3
	V30h11c0-0.8-0.2-1.6-0.5-2.2c-0.4-0.7-0.8-1.2-1.5-1.6c-0.6-0.4-1.4-0.6-2.2-0.6c-0.9,0-1.7,0.2-2.4,0.7c-0.7,0.4-1.2,1-1.6,1.7
	c-0.4,0.7-0.6,1.5-0.6,2.3v2.6c0,1.1,0.2,2,0.6,2.8c0.4,0.8,0.9,1.4,1.7,1.8c0.7,0.4,1.5,0.6,2.5,0.6c0.6,0,1.2-0.1,1.7-0.3
	c0.5-0.2,1-0.5,1.3-0.8c0.4-0.4,0.7-0.8,0.9-1.3l4.1,0.5c-0.3,1.1-0.7,2-1.5,2.8c-0.7,0.8-1.6,1.4-2.8,1.9
	C103.9,41.1,102.7,41.4,101.2,41.4z M115.8,22.5l3.7,6.8l3.8-6.8h4.6l-5.6,9.3l5.7,9.3h-4.6l-3.9-6.7l-3.9,6.7h-4.6l5.7-9.3
	l-5.5-9.3H115.8z M144.5,23.1c-0.1-1.1-0.6-1.9-1.4-2.5c-0.8-0.6-1.9-0.9-3.2-0.9c-0.9,0-1.7,0.1-2.4,0.4c-0.7,0.3-1.2,0.7-1.5,1.1
	c-0.4,0.5-0.5,1-0.5,1.7c0,0.5,0.1,1,0.3,1.3c0.2,0.4,0.6,0.7,1,1c0.4,0.3,0.9,0.5,1.4,0.7c0.5,0.2,1,0.3,1.5,0.4l2.3,0.6
	c0.9,0.2,1.8,0.5,2.7,0.9c0.9,0.4,1.6,0.8,2.3,1.4c0.7,0.6,1.2,1.2,1.6,2c0.4,0.8,0.6,1.7,0.6,2.8c0,1.4-0.4,2.7-1.1,3.8
	c-0.7,1.1-1.8,2-3.2,2.6c-1.4,0.6-3.1,0.9-5.1,0.9c-1.9,0-3.6-0.3-5-0.9c-1.4-0.6-2.5-1.5-3.3-2.6c-0.8-1.1-1.2-2.5-1.3-4.2h4.4
	c0.1,0.9,0.3,1.6,0.8,2.1c0.5,0.6,1.1,1,1.8,1.3c0.8,0.3,1.6,0.4,2.5,0.4c1,0,1.8-0.1,2.6-0.4c0.7-0.3,1.3-0.7,1.7-1.2
	c0.4-0.5,0.6-1.2,0.6-1.9c0-0.6-0.2-1.2-0.6-1.6c-0.4-0.4-0.9-0.8-1.6-1.1c-0.7-0.3-1.4-0.5-2.3-0.8l-2.8-0.7
	c-2-0.5-3.6-1.3-4.8-2.4c-1.2-1.1-1.8-2.5-1.8-4.3c0-1.5,0.4-2.7,1.2-3.8c0.8-1.1,1.9-1.9,3.2-2.5c1.4-0.6,2.9-0.9,4.6-0.9
	c1.8,0,3.3,0.3,4.6,0.9c1.3,0.6,2.4,1.4,3.1,2.5c0.8,1.1,1.1,2.3,1.2,3.7H144.5z M161.7,22.5v3.4H151v-3.4H161.7z M153.7,18h4.4
	v17.4c0,0.6,0.1,1,0.3,1.4c0.2,0.3,0.4,0.5,0.7,0.6c0.3,0.1,0.6,0.2,1,0.2c0.3,0,0.5,0,0.7-0.1c0.2,0,0.4-0.1,0.5-0.1l0.7,3.4
	c-0.2,0.1-0.6,0.2-1,0.3c-0.4,0.1-0.9,0.2-1.6,0.2c-1.1,0-2.1-0.1-3-0.5c-0.9-0.4-1.6-0.9-2.1-1.7c-0.5-0.8-0.8-1.7-0.7-2.9V18z
	 M172.7,41.4c-1.8,0-3.4-0.4-4.7-1.2c-1.3-0.8-2.4-1.9-3.1-3.3c-0.7-1.4-1.1-3.1-1.1-5s0.4-3.6,1.1-5c0.7-1.4,1.8-2.6,3.1-3.4
	c1.3-0.8,2.9-1.2,4.7-1.2c1.8,0,3.4,0.4,4.7,1.2c1.3,0.8,2.4,1.9,3.1,3.4c0.7,1.4,1.1,3.1,1.1,5s-0.4,3.6-1.1,5
	c-0.7,1.4-1.8,2.5-3.1,3.3C176.1,41,174.6,41.4,172.7,41.4z M172.8,37.9c1,0,1.8-0.3,2.5-0.8c0.7-0.5,1.2-1.3,1.5-2.2
	c0.3-0.9,0.5-1.9,0.5-3.1c0-1.1-0.2-2.2-0.5-3.1c-0.3-0.9-0.8-1.7-1.5-2.2c-0.7-0.5-1.5-0.8-2.5-0.8c-1,0-1.8,0.3-2.5,0.8
	c-0.7,0.5-1.2,1.3-1.5,2.2c-0.3,0.9-0.5,1.9-0.5,3.1c0,1.1,0.2,2.1,0.5,3.1c0.3,0.9,0.8,1.7,1.5,2.2
	C170.9,37.6,171.8,37.9,172.8,37.9z M192.9,41.4c-1.9,0-3.4-0.4-4.8-1.2c-1.3-0.8-2.3-1.9-3.1-3.4c-0.7-1.4-1.1-3.1-1.1-5
	c0-1.9,0.4-3.5,1.1-5c0.7-1.4,1.7-2.6,3.1-3.4c1.3-0.8,2.9-1.2,4.7-1.2c1.5,0,2.8,0.3,4,0.8c1.2,0.5,2.1,1.3,2.8,2.3
	c0.7,1,1.1,2.2,1.2,3.5h-4.2c-0.2-0.9-0.6-1.6-1.2-2.2c-0.6-0.6-1.5-0.9-2.5-0.9c-0.9,0-1.7,0.2-2.4,0.7c-0.7,0.5-1.2,1.2-1.6,2.1
	c-0.4,0.9-0.6,2-0.6,3.2c0,1.3,0.2,2.4,0.6,3.3c0.4,0.9,0.9,1.6,1.6,2.1c0.7,0.5,1.5,0.7,2.4,0.7c0.6,0,1.2-0.1,1.7-0.4
	c0.5-0.2,0.9-0.6,1.3-1.1c0.3-0.5,0.6-1,0.7-1.7h4.2c-0.1,1.3-0.5,2.5-1.2,3.5c-0.7,1-1.6,1.8-2.7,2.4
	C195.8,41.1,194.5,41.4,192.9,41.4z M207.9,35.2l0-5.3h0.7l6.7-7.4h5.1l-8.2,9.1h-0.9L207.9,35.2z M203.9,41V16.3h4.4V41H203.9z
	 M215.6,41l-6-8.4l2.9-3.1l8.3,11.5H215.6z"/>
<g>
	
		<linearGradient id="SVGID_1_" gradientUnits="userSpaceOnUse" x1="25.3519" y1="67.9752" x2="26.1991" y2="-22.4896" gradientTransform="matrix(1 0 0 -1 0 54)">
		<stop  offset="0" style="stop-color:#B38BE2"/>
		<stop  offset="1" style="stop-color:#5C1BAB"/>
	</linearGradient>
	<path class="st1" d="M51.5,26c0,14.4-11.5,26-25.7,26S0,40.4,0,26S11.5,0,25.7,0C39.9,0,51.5,11.6,51.5,26z"/>
	<path class="st2" d="M21.2,10.2c0.2-0.8,1-1.3,1.8-1.1l13.2,3.6c0.8,0.2,1.3,1,1.1,1.8l-3.6,13.5c-0.2,0.8-1,1.3-1.8,1.1l-13.2-3.6
		c-0.8-0.2-1.3-1-1.1-1.8L21.2,10.2z"/>
	<path class="st3" d="M22.5,12.2c0.2-0.7,0.9-1.1,1.5-0.9l10.2,2.8c0.7,0.2,1.1,0.9,0.9,1.6l-3,11.3c-0.2,0.7-0.9,1.1-1.5,0.9
		L20.4,25c-0.7-0.2-1.1-0.9-0.9-1.6L22.5,12.2z"/>
	<path class="st4" d="M26.8,21.5C26.8,21.5,26.8,21.6,26.8,21.5c0.1,0,0.1,0,0.1,0.1l3.4,0.9c0.3,0.1,0.6-0.1,0.7-0.4
		c0-0.1,0-0.1,0-0.2l0.6-2.4c0,0,0,0,0-0.1c0,0,0,0,0-0.1l0.6-2.4c0,0,0,0,0-0.1c0,0,0-0.1,0-0.1c0.1-0.3-0.1-0.6-0.4-0.7
		c-0.1,0-0.1,0-0.2,0L25,14.4c-0.3-0.1-0.6,0.1-0.7,0.4l-0.7,2.5L23,19.9c-0.1,0.3,0.1,0.6,0.4,0.7c0,0,0.1,0,0.1,0L26.8,21.5z
		 M31.1,17.2l-2.3-0.6L28.4,18l2.3,0.6L31.1,17.2z M26.5,20.3l0.4-1.5l-2.3-0.6l-0.4,1.5L26.5,20.3z M30,21.2l-2.3-0.6l0.4-1.5
		l2.3,0.6L30,21.2z M27.6,16.2l-0.4,1.4L24.9,17l0.4-1.4L27.6,16.2z"/>
	<path class="st5" d="M19.6,43.4c1.1,0,1.9-0.8,1.9-1.9c0-1-0.9-1.9-1.9-1.9c-1.1,0-1.9,0.8-1.9,1.9C17.7,42.5,18.5,43.4,19.6,43.4z
		"/>
	<path class="st5" d="M30.8,43.4c1.1,0,1.9-0.8,1.9-1.9c0-1-0.9-1.9-1.9-1.9c-1.1,0-1.9,0.8-1.9,1.9C28.9,42.5,29.7,43.4,30.8,43.4z
		"/>
	<path class="st6" d="M36.8,26.8l-1.1,6.5c-0.1,0.7-0.7,1.1-1.4,1.1H17.9l-0.3,1.9h15.7c0.8,0.1,1.4,0.7,1.4,1.4
		c-0.1,0.8-0.7,1.4-1.4,1.4H15.9c-0.9-0.1-1.5-0.8-1.4-1.7l0.7-4.1L14.1,22l-3.2-1c-0.8-0.3-1.1-1-0.9-1.8c0.3-0.8,1-1.1,1.8-0.9
		l4.1,1.3c0.5,0.2,0.9,0.7,1,1.2l0.2,2.3l18.6,2.1C36.4,25.4,36.9,26.1,36.8,26.8z"/>
	
		<linearGradient id="SVGID_00000167353966323595379710000008278485806824096662_" gradientUnits="userSpaceOnUse" x1="46.3346" y1="22.0337" x2="46.3346" y2="4.7368" gradientTransform="matrix(1 0 0 -1 0 54)">
		<stop  offset="0" style="stop-color:#25CD52"/>
		<stop  offset="1" style="stop-color:#34A853"/>
	</linearGradient>
	<path style="fill:url(#SVGID_00000167353966323595379710000008278485806824096662_);" d="M38,39.3c0-4.1,3.3-7.3,7.3-7.3h2.2
		c4,0,7.3,3.3,7.3,7.3v2.6c0,4.1-3.3,7.3-7.3,7.3h-2.2c-4,0-7.3-3.3-7.3-7.3V39.3z"/>
	<path class="st4" d="M47.5,33h-2.2c-3.4,0-6.2,2.8-6.2,6.3V42c0,3.5,2.8,6.3,6.2,6.3h2.2c3.4,0,6.2-2.8,6.2-6.3v-2.6
		C53.7,35.9,50.9,33,47.5,33z M45.3,32c-4,0-7.3,3.3-7.3,7.3v2.6c0,4.1,3.3,7.3,7.3,7.3h2.2c4,0,7.3-3.3,7.3-7.3v-2.6
		c0-4.1-3.3-7.3-7.3-7.3H45.3z"/>
	<path class="st6" d="M48.3,38.6c-0.5-0.5-1.2-0.8-1.9-0.8c-1.3,0-2.4,0.9-2.7,2.1c0,0.1-0.1,0.2-0.2,0.2h-1c-0.1,0-0.2-0.1-0.2-0.2
		c0.4-1.9,2-3.4,4-3.4c1.1,0,2.1,0.4,2.8,1.1l0.6-0.6c0.2-0.2,0.7-0.1,0.7,0.3v2.2c0,0.2-0.2,0.4-0.4,0.4h-2.2
		c-0.4,0-0.5-0.4-0.3-0.7L48.3,38.6z M42.6,41.3h2.2c0.4,0,0.5,0.4,0.3,0.7l-0.7,0.7c0.5,0.5,1.2,0.8,1.9,0.8c1.3,0,2.4-0.9,2.7-2.1
		c0-0.1,0.1-0.2,0.2-0.2h1c0.1,0,0.2,0.1,0.2,0.2c-0.4,1.9-2,3.4-4,3.4c-1.1,0-2.1-0.4-2.8-1.1l-0.6,0.6c-0.2,0.2-0.7,0.1-0.7-0.3
		v-2.2C42.3,41.5,42.4,41.3,42.6,41.3z"/>
</g>
</svg>
