<svg width="270" height="104" viewBox="0 0 270 104" fill="none" xmlns="http://www.w3.org/2000/svg">
<path d="M253.07 29.2371H245.319C244.465 29.2371 243.736 28.9379 243.134 28.3395C242.551 27.7411 242.26 27.0268 242.26 26.1968C242.26 25.3474 242.551 24.6332 243.134 24.0541C243.736 23.4363 244.465 23.1275 245.319 23.1275H266.97C267.805 23.1275 268.524 23.4363 269.126 24.0541C269.709 24.6332 270 25.3474 270 26.1968C270 27.0268 269.709 27.7411 269.126 28.3395C268.524 28.9379 267.805 29.2371 266.97 29.2371H259.19V57.2371C259.19 58.0865 258.888 58.8104 258.286 59.4088C257.703 59.9879 256.985 60.2775 256.13 60.2775C255.275 60.2775 254.556 59.9879 253.974 59.4088C253.371 58.8104 253.07 58.0865 253.07 57.2371V29.2371Z" fill="white"/>
<path fill-rule="evenodd" clip-rule="evenodd" d="M212.451 60.0458C211.654 59.7176 211.091 59.1675 210.761 58.3953C210.45 57.6232 210.45 56.851 210.761 56.0789L214.083 48.174V48.1451L223.669 25.1833C223.689 25.0868 223.728 24.9999 223.786 24.9227L223.844 24.7779C223.902 24.72 223.932 24.6814 223.932 24.6621C223.932 24.6428 223.961 24.5945 224.019 24.5173C224.077 24.4787 224.116 24.4498 224.136 24.4304C224.136 24.4111 224.155 24.3725 224.194 24.3146C224.272 24.2567 224.31 24.2181 224.31 24.1988C224.33 24.1795 224.369 24.1505 224.427 24.1119C224.485 24.054 224.524 24.0251 224.544 24.0251C224.524 24.0251 224.563 23.9961 224.66 23.9382C224.718 23.8803 224.757 23.8417 224.777 23.8224L224.893 23.7645C224.971 23.7066 225.019 23.6776 225.039 23.6776C225.078 23.6583 225.136 23.6293 225.214 23.5907C225.311 23.5521 225.34 23.5425 225.301 23.5618C225.262 23.5618 225.291 23.5425 225.389 23.5039C225.486 23.4846 225.554 23.4653 225.593 23.446C225.612 23.446 225.67 23.4267 225.767 23.388L225.884 23.3591C225.903 23.3591 225.962 23.3494 226.059 23.3301H226.175C226.195 23.3301 226.253 23.3301 226.35 23.3301C226.408 23.3301 226.447 23.3301 226.467 23.3301C226.506 23.3301 226.554 23.3301 226.612 23.3301H226.787H226.933L227.079 23.3591C227.098 23.3591 227.156 23.3784 227.253 23.417C227.351 23.4363 227.38 23.446 227.341 23.446C227.555 23.5039 227.749 23.5811 227.924 23.6776C227.904 23.6583 227.943 23.6776 228.04 23.7355C228.118 23.7741 228.166 23.8031 228.186 23.8224L228.302 23.9093C228.361 23.9672 228.4 24.0058 228.419 24.0251C228.438 24.0251 228.477 24.0444 228.536 24.083C228.574 24.1409 228.613 24.1795 228.652 24.1988C228.652 24.2181 228.681 24.2471 228.74 24.2857C228.798 24.3629 228.827 24.4111 228.827 24.4304L228.914 24.5173C228.992 24.5945 229.031 24.6428 229.031 24.6621C229.031 24.6814 229.05 24.72 229.089 24.7779C229.147 24.8551 229.177 24.9034 229.177 24.9227C229.235 24.9999 229.274 25.0868 229.293 25.1833L238.88 48.1451V48.174L242.202 56.0789C242.512 56.851 242.512 57.6232 242.202 58.3953C241.871 59.1675 241.318 59.7176 240.541 60.0458C240.152 60.2002 239.754 60.2774 239.346 60.2774C237.986 60.2774 237.044 59.6501 236.52 58.3953L234.014 52.4015H218.949L216.443 58.3953C215.918 59.6501 214.976 60.2774 213.616 60.2774C213.209 60.2774 212.82 60.2002 212.451 60.0458ZM231.508 46.3209L226.467 34.3043L221.484 46.3209H231.508Z" fill="white"/>
<path d="M201.349 60.2774C200.494 60.2774 199.766 59.9782 199.164 59.3798C198.561 58.7814 198.26 58.0575 198.26 57.2081V44.8151H182.234V57.2081C182.234 58.0575 181.933 58.7814 181.331 59.3798C180.728 59.9782 180 60.2774 179.145 60.2774C178.291 60.2774 177.562 59.9782 176.96 59.3798C176.358 58.7814 176.057 58.0575 176.057 57.2081V26.2836C176.057 25.4342 176.358 24.7103 176.96 24.1119C177.562 23.5135 178.291 23.2143 179.145 23.2143C180 23.2143 180.728 23.5135 181.331 24.1119C181.933 24.7103 182.234 25.4342 182.234 26.2836V38.6766H198.26V26.2836C198.26 25.4342 198.561 24.7103 199.164 24.1119C199.766 23.5135 200.494 23.2143 201.349 23.2143C202.204 23.2143 202.932 23.5135 203.534 24.1119C204.156 24.7103 204.467 25.4342 204.467 26.2836V57.2081C204.467 58.0575 204.156 58.7814 203.534 59.3798C202.932 59.9782 202.204 60.2774 201.349 60.2774Z" fill="white"/>
<path d="M157.029 60.2774C151.9 60.2774 147.52 58.4822 143.887 54.8917C140.255 51.2626 138.438 46.9 138.438 41.8038C138.438 36.7076 140.255 32.3546 143.887 28.7448C147.52 25.135 151.9 23.3301 157.029 23.3301C161.244 23.3301 165.023 24.6042 168.364 27.1523C169.024 27.6735 169.413 28.3394 169.529 29.1502C169.646 29.9996 169.442 30.7621 168.918 31.4377C168.393 32.1133 167.713 32.4994 166.878 32.5959C166.042 32.7117 165.285 32.5187 164.605 32.0168C162.371 30.2988 159.846 29.4398 157.029 29.4398C153.61 29.4398 150.686 30.6462 148.258 33.0592C145.83 35.4722 144.616 38.387 144.616 41.8038C144.616 45.2012 145.83 48.1064 148.258 50.5194C150.686 52.9517 153.61 54.1678 157.029 54.1678C160.254 54.1678 163.041 53.0965 165.392 50.9537C166.033 50.3746 166.771 50.1044 167.606 50.143C168.461 50.1816 169.18 50.5194 169.763 51.1564C170.326 51.7742 170.588 52.5077 170.549 53.3571C170.53 54.2064 170.2 54.911 169.559 55.4708C166.004 58.6752 161.827 60.2774 157.029 60.2774Z" fill="white"/>
<path d="M132.611 54.023C133.446 54.023 134.165 54.3126 134.767 54.8917C135.369 55.4901 135.67 56.214 135.67 57.0633C135.67 57.8934 135.369 58.6076 134.767 59.2061C134.165 59.7852 133.446 60.0747 132.611 60.0747C131.775 60.0747 131.047 59.7852 130.425 59.2061C129.842 58.6076 129.551 57.8934 129.551 57.0633C129.551 56.214 129.842 55.4901 130.425 54.8917C131.047 54.3126 131.775 54.023 132.611 54.023Z" fill="white"/>
<path d="M99.4507 60.0458C98.6154 60.0458 97.8869 59.7465 97.2653 59.1481C96.6825 58.569 96.3911 57.8644 96.3911 57.0344V26.2836C96.3911 25.4535 96.6825 24.7489 97.2653 24.1698C97.8869 23.5714 98.6154 23.2722 99.4507 23.2722C100.286 23.2722 101.005 23.5714 101.607 24.1698C102.19 24.7489 102.481 25.4535 102.481 26.2836V39.8927L117.371 24.3435C117.954 23.7451 118.663 23.4266 119.498 23.388C120.333 23.3687 121.062 23.6583 121.684 24.2567C122.286 24.8165 122.597 25.5114 122.616 26.3415C122.655 27.1908 122.373 27.9147 121.771 28.5131L109.27 41.5721L122.266 55.1523C122.849 55.7893 123.131 56.5132 123.111 57.3239C123.092 58.154 122.781 58.8682 122.179 59.4666C121.577 60.0071 120.868 60.2774 120.052 60.2774C119.197 60.2774 118.459 59.9685 117.837 59.3508L105.074 45.9733L102.481 48.6952V57.0344C102.481 57.8644 102.19 58.569 101.607 59.1481C101.005 59.7465 100.286 60.0458 99.4507 60.0458Z" fill="white"/>
<path d="M89.8932 49.2453C89.7572 52.3339 88.514 54.9399 86.1634 57.0634C83.7935 59.2061 80.9864 60.2774 77.7423 60.2774C74.9061 60.2774 72.3711 59.679 70.1371 58.4822C67.4369 57.0344 65.7274 54.9303 65.0087 52.1699C64.795 51.3591 64.8921 50.587 65.3001 49.8534C65.7469 49.1392 66.3782 48.6759 67.1941 48.4635C68.01 48.2512 68.7773 48.3574 69.4961 48.7821C70.2342 49.2067 70.7005 49.8245 70.8947 50.6352C71.2249 51.7934 72.0797 52.7007 73.4589 53.357C74.7022 53.9168 76.13 54.1968 77.7423 54.1968C79.3547 54.1968 80.7436 53.6949 81.9092 52.6911C83.0942 51.6873 83.7255 50.4422 83.8032 48.9558C83.8226 48.0485 83.5021 47.2474 82.8416 46.5525C81.7538 45.4136 79.9472 44.8248 77.4218 44.7862H77.3927C77.315 44.7862 77.2955 44.7862 77.3344 44.7862C77.315 44.7862 77.2955 44.7862 77.2761 44.7862C73.0218 44.7283 69.768 43.5121 67.5146 41.1378C65.6692 39.1688 64.8047 36.8813 64.9213 34.2753C65.0572 31.1867 66.3005 28.5711 68.651 26.4284C70.9821 24.2857 73.7892 23.2143 77.0721 23.2143C79.9083 23.2143 82.4434 23.8127 84.6774 25.0095C87.3776 26.4766 89.087 28.5807 89.8058 31.3219C90.0195 32.1326 89.9029 32.9048 89.4561 33.6383C89.0482 34.3718 88.4363 34.8351 87.6204 35.0282C86.8045 35.2405 86.0275 35.144 85.2893 34.7386C84.5705 34.2946 84.1043 33.6673 83.8906 32.8565C83.5798 31.6983 82.7251 30.791 81.3264 30.1347C80.0831 29.5749 78.6651 29.295 77.0721 29.295C75.4404 29.295 74.032 29.8065 72.847 30.8296C71.7009 31.8334 71.089 33.0688 71.0113 34.5359C70.9724 35.4432 71.2929 36.254 71.9728 36.9682C73.0413 38.0878 74.8479 38.6669 77.3927 38.7055H77.5092C81.7635 38.7827 85.0173 40.0085 87.2707 42.3829C89.1356 44.3326 90.0098 46.62 89.8932 49.2453Z" fill="white"/>
<path d="M54.9558 60.2774C54.101 60.2774 53.3823 59.9782 52.7995 59.3798C52.1973 58.8007 51.8962 58.0865 51.8962 57.2371V26.3705C51.8962 25.5211 52.1973 24.8069 52.7995 24.2278C53.3823 23.6293 54.101 23.3301 54.9558 23.3301C55.8105 23.3301 56.5292 23.6293 57.112 24.2278C57.7336 24.8069 58.0445 25.5211 58.0445 26.3705V57.2371C58.0445 58.0865 57.7336 58.8007 57.112 59.3798C56.5292 59.9782 55.8105 60.2774 54.9558 60.2774Z" fill="white"/>
<path fill-rule="evenodd" clip-rule="evenodd" d="M17.1919 60.0458C16.4149 59.7176 15.8612 59.1675 15.531 58.3953C15.2202 57.6232 15.2202 56.851 15.531 56.0789L18.8237 48.174V48.1451L28.4103 25.1833C28.4492 25.0868 28.4978 24.9999 28.556 24.9227L28.5852 24.7779C28.6434 24.72 28.6823 24.6814 28.7017 24.6621C28.7017 24.6428 28.7309 24.5945 28.7891 24.5173C28.828 24.4787 28.8571 24.4498 28.8766 24.4304C28.8766 24.4111 28.9057 24.3725 28.964 24.3146C29.0222 24.2567 29.0514 24.2181 29.0514 24.1988C29.0708 24.1795 29.1097 24.1505 29.1679 24.1119C29.2456 24.054 29.2942 24.0251 29.3136 24.0251C29.2942 24.0251 29.3233 23.9961 29.4011 23.9382C29.4788 23.8803 29.5273 23.8417 29.5467 23.8224L29.6342 23.7645C29.7313 23.7066 29.7799 23.6776 29.7799 23.6776C29.8187 23.6583 29.8867 23.6293 29.9838 23.5907C30.0615 23.5521 30.081 23.5425 30.0421 23.5618C30.0227 23.5618 30.0615 23.5425 30.1587 23.5039C30.2364 23.4846 30.2946 23.4653 30.3335 23.446C30.3529 23.446 30.4209 23.4267 30.5375 23.388L30.6249 23.3591C30.6637 23.3591 30.722 23.3494 30.7997 23.3301H30.9454C30.9648 23.3301 31.0134 23.3301 31.0911 23.3301C31.1688 23.3301 31.2174 23.3301 31.2368 23.3301C31.2562 23.3301 31.3048 23.3301 31.3825 23.3301H31.5282H31.703L31.8196 23.3591C31.8584 23.3591 31.9167 23.3784 31.9944 23.417C32.111 23.4363 32.1498 23.446 32.111 23.446C32.3246 23.5039 32.5189 23.5811 32.6937 23.6776C32.6743 23.6583 32.7035 23.6776 32.7812 23.7355C32.8783 23.7741 32.9366 23.8031 32.956 23.8224L33.0434 23.9093C33.1211 23.9672 33.1697 24.0058 33.1891 24.0251C33.2085 24.0251 33.2377 24.0444 33.2765 24.083C33.3348 24.1409 33.3834 24.1795 33.4222 24.1988C33.4222 24.2181 33.4416 24.2471 33.4805 24.2857C33.5582 24.3629 33.597 24.4111 33.597 24.4304L33.6845 24.5173C33.7427 24.5945 33.7719 24.6428 33.7719 24.6621C33.7719 24.6814 33.801 24.72 33.8593 24.7779C33.9176 24.8551 33.9467 24.9034 33.9467 24.9227C33.9856 24.9999 34.0244 25.0868 34.0633 25.1833L43.6499 48.1451V48.174L46.9426 56.0789C47.2534 56.851 47.2534 57.6232 46.9426 58.3953C46.6124 59.1675 46.0587 59.7176 45.2817 60.0458C44.8932 60.2002 44.5047 60.2774 44.1161 60.2774C42.7369 60.2774 41.7948 59.6501 41.2897 58.3953L38.7837 52.4015H23.6899L21.2131 58.3953C20.6886 59.6501 19.7367 60.2774 18.3575 60.2774C17.9689 60.2774 17.5804 60.2002 17.1919 60.0458ZM36.2487 46.3209L31.2368 34.3043L26.2249 46.3209H36.2487Z" fill="white"/>
<path d="M91.0296 67.2847C84.2694 73.3653 74.8575 77.8245 64.1053 79.5329C63.7557 79.5908 63.4351 79.7066 63.1438 79.8514C62.5901 80.1409 62.2405 80.5174 62.0073 80.8069C61.8034 81.0965 61.6577 81.3281 61.5703 81.5598C61.3954 81.9362 61.3372 82.2257 61.2789 82.5153C61.1915 82.9207 61.1623 83.2971 61.1332 83.7025C61.0943 84.1078 61.0846 84.5229 61.104 84.9476C61.104 85.8162 61.1332 86.8007 61.1915 87.8721C61.2789 89.4357 61.3954 91.144 61.512 92.7656C61.5994 94.3871 61.6868 95.9217 61.6868 97.1089C61.6868 97.5143 61.6868 97.8617 61.6577 98.1513C61.6577 98.354 61.6285 98.5277 61.5994 98.6435V98.7304L62.561 98.991L61.6285 98.6146C61.5994 98.7014 61.5994 98.7304 61.5994 98.7304L62.561 98.991L61.6285 98.6146L63.4351 99.3674L61.7742 98.325C61.716 98.4408 61.6577 98.5567 61.6285 98.6146L63.4351 99.3674L61.7742 98.325L63.9305 99.657L62.5027 97.6011C62.0948 97.8617 61.8908 98.1513 61.7742 98.325L63.9305 99.657L62.5027 97.6011L64.0179 99.8307L63.202 97.2537C62.9398 97.3405 62.7067 97.4564 62.5027 97.6011L64.0179 99.8307L63.202 97.2537L64.0471 99.8307V97.1378C63.7557 97.1378 63.4643 97.1668 63.202 97.2537L64.0471 99.8307V97.1378V97.9776L64.1345 97.1378H64.0471V97.9776L64.1345 97.1378L64.1053 97.3984L64.1636 97.1378H64.1345L64.1053 97.3984L64.1636 97.1378C64.1345 97.1378 63.9888 97.0799 63.7557 96.9931C63.3186 96.7904 62.6484 96.385 61.8325 95.8059C60.4338 94.7924 58.7147 93.3157 56.9081 91.6652C54.169 89.1751 51.2551 86.3085 48.6326 83.9631C47.2923 82.7759 46.0684 81.7045 44.9029 80.8648C44.3201 80.4305 43.7373 80.0541 43.1545 79.7356C42.5718 79.3881 41.9599 79.1275 41.2022 78.9538C30.8871 76.7242 22.0289 71.9465 15.8224 65.6921C12.7045 62.5359 10.2569 59.0613 8.59594 55.326C6.93503 51.5907 6.03173 47.5949 6.03173 43.4542C6.03173 38.4739 7.31384 33.7252 9.70322 29.3529C13.2581 22.8089 19.2899 17.1047 27.0117 13.0509C34.7334 8.99712 44.1161 6.59381 54.2564 6.59381C67.7768 6.59381 79.9568 10.8792 88.6402 17.6259C89.9514 18.6393 91.8455 18.4366 92.8653 17.1047C93.8852 15.8017 93.6521 13.9196 92.3408 12.9061C82.4919 5.26185 69.0589 0.600006 54.2564 0.600006C39.4539 0.600006 26.0209 5.26185 16.172 12.9061C11.2184 16.7572 7.19728 21.3322 4.37082 26.5152C1.57349 31.6693 0 37.4315 0 43.4542C0 48.4635 1.07813 53.2991 3.08871 57.7583C6.06087 64.4181 11.0436 70.2671 17.3667 74.9C23.719 79.5329 31.4116 82.9786 39.9201 84.8028L40.0367 84.2816L39.8619 84.7738L39.9201 84.8028L40.0367 84.2816L39.8619 84.7738L39.891 84.8028C39.9493 84.8317 40.1532 84.9186 40.4155 85.0634C40.9109 85.3819 41.6102 85.8741 42.4261 86.5401C43.8247 87.6983 45.5439 89.2619 47.3797 90.9703C50.1187 93.5474 53.0617 96.414 55.8008 98.7014C57.1703 99.8307 58.4816 100.844 59.7637 101.626C60.4047 102.031 61.0166 102.35 61.716 102.639C62.3861 102.9 63.1438 103.103 64.0471 103.132C64.3676 103.132 64.7464 103.074 65.0669 102.958C65.708 102.755 66.2033 102.379 66.4947 102.031C66.7861 101.742 66.9609 101.452 67.0775 101.192C67.3106 100.757 67.398 100.41 67.4854 100.062C67.5729 99.5701 67.6311 99.1068 67.6603 98.6146C67.6991 98.132 67.7185 97.6301 67.7185 97.1089C67.7185 95.2268 67.5728 92.9393 67.4272 90.7097C67.3397 89.6094 67.2523 88.538 67.2232 87.5246C67.1649 86.5401 67.1358 85.6425 67.1358 84.9476C67.1358 84.629 67.1358 84.3395 67.1358 84.1368C67.1649 83.992 67.1649 83.8472 67.1649 83.7893L67.194 83.7314V83.7025L66.4073 83.5577L67.1649 83.7893C67.194 83.7314 67.194 83.7025 67.194 83.7025L66.4073 83.5577L67.1649 83.7893L65.0669 83.1234L66.7861 84.4553C67.0775 84.1078 67.1066 83.9052 67.1649 83.7893L65.0669 83.1234L66.7861 84.4553L64.6881 82.8048L66.1742 85.0344C66.4656 84.8317 66.6696 84.629 66.7861 84.4553L64.6881 82.8048L66.1742 85.0344L64.6298 82.718L65.0669 85.4688C65.4749 85.4108 65.8828 85.2371 66.1742 85.0344L64.6298 82.718L65.0669 85.4688C76.8681 83.5866 87.3289 78.6642 95.0799 71.7149C96.3037 70.6146 96.4203 68.7035 95.2838 67.4874C94.1766 66.2423 92.2534 66.1554 91.0296 67.2847Z" fill="white"/>
</svg>
