<svg width="158" height="61" viewBox="0 0 158 61" fill="none" xmlns="http://www.w3.org/2000/svg">
<path d="M148.093 17.358H143.557C143.057 17.358 142.631 17.1829 142.278 16.8327C141.937 16.4825 141.767 16.0646 141.767 15.5788C141.767 15.0818 141.937 14.6639 142.278 14.325C142.631 13.9635 143.057 13.7827 143.557 13.7827H156.227C156.715 13.7827 157.136 13.9635 157.488 14.325C157.829 14.6639 158 15.0818 158 15.5788C158 16.0646 157.829 16.4825 157.488 16.8327C157.136 17.1829 156.715 17.358 156.227 17.358H151.674V33.7432C151.674 34.2402 151.498 34.6639 151.145 35.014C150.804 35.3529 150.384 35.5224 149.883 35.5224C149.383 35.5224 148.963 35.3529 148.622 35.014C148.269 34.6639 148.093 34.2402 148.093 33.7432V17.358Z" fill="#7F54B3"/>
<path fill-rule="evenodd" clip-rule="evenodd" d="M124.323 35.3868C123.857 35.1948 123.527 34.8728 123.334 34.421C123.152 33.9691 123.152 33.5173 123.334 33.0654L125.278 28.4396V28.4227L130.888 14.9858C130.899 14.9293 130.922 14.8785 130.956 14.8333L130.99 14.7486C131.024 14.7147 131.041 14.6921 131.041 14.6808C131.041 14.6695 131.059 14.6412 131.093 14.5961C131.127 14.5735 131.149 14.5565 131.161 14.5452C131.161 14.5339 131.172 14.5113 131.195 14.4774C131.24 14.4436 131.263 14.421 131.263 14.4097C131.274 14.3984 131.297 14.3814 131.331 14.3588C131.365 14.3249 131.388 14.308 131.4 14.308C131.388 14.308 131.411 14.2911 131.468 14.2572C131.502 14.2233 131.525 14.2007 131.536 14.1894L131.604 14.1555C131.65 14.1216 131.678 14.1047 131.689 14.1047C131.712 14.0934 131.746 14.0764 131.792 14.0538C131.849 14.0312 131.866 14.0256 131.843 14.0369C131.82 14.0369 131.837 14.0256 131.894 14.003C131.951 13.9917 131.991 13.9804 132.013 13.9691C132.025 13.9691 132.059 13.9578 132.116 13.9352L132.184 13.9183C132.195 13.9183 132.229 13.9126 132.286 13.9013H132.354C132.366 13.9013 132.4 13.9013 132.457 13.9013C132.491 13.9013 132.514 13.9013 132.525 13.9013C132.548 13.9013 132.576 13.9013 132.61 13.9013H132.713H132.798L132.883 13.9183C132.894 13.9183 132.929 13.9296 132.985 13.9522C133.042 13.9635 133.059 13.9691 133.036 13.9691C133.162 14.003 133.275 14.0482 133.378 14.1047C133.366 14.0934 133.389 14.1047 133.446 14.1386C133.491 14.1611 133.52 14.1781 133.531 14.1894L133.599 14.2402C133.633 14.2741 133.656 14.2967 133.667 14.308C133.679 14.308 133.702 14.3193 133.736 14.3419C133.758 14.3758 133.781 14.3984 133.804 14.4097C133.804 14.421 133.821 14.4379 133.855 14.4605C133.889 14.5057 133.906 14.5339 133.906 14.5452L133.957 14.5961C134.003 14.6412 134.025 14.6695 134.025 14.6808C134.025 14.6921 134.037 14.7147 134.06 14.7486C134.094 14.7937 134.111 14.822 134.111 14.8333C134.145 14.8785 134.168 14.9293 134.179 14.9858L139.789 28.4227V28.4396L141.733 33.0654C141.915 33.5173 141.915 33.9691 141.733 34.421C141.54 34.8728 141.216 35.1948 140.761 35.3868C140.534 35.4772 140.3 35.5223 140.062 35.5223C139.266 35.5223 138.715 35.1552 138.408 34.421L136.941 30.9135H128.126L126.659 34.421C126.352 35.1552 125.801 35.5223 125.005 35.5223C124.766 35.5223 124.539 35.4772 124.323 35.3868ZM135.475 27.3552L132.525 20.3233L129.609 27.3552H135.475Z" fill="#7F54B3"/>
<path d="M117.826 35.5223C117.326 35.5223 116.9 35.3473 116.548 34.9971C116.195 34.6469 116.019 34.2233 116.019 33.7262V26.4741H106.641V33.7262C106.641 34.2233 106.464 34.6469 106.112 34.9971C105.76 35.3473 105.333 35.5223 104.833 35.5223C104.333 35.5223 103.907 35.3473 103.554 34.9971C103.202 34.6469 103.026 34.2233 103.026 33.7262V15.6297C103.026 15.1326 103.202 14.709 103.554 14.3588C103.907 14.0086 104.333 13.8336 104.833 13.8336C105.333 13.8336 105.76 14.0086 106.112 14.3588C106.464 14.709 106.641 15.1326 106.641 15.6297V22.8819H116.019V15.6297C116.019 15.1326 116.195 14.709 116.548 14.3588C116.9 14.0086 117.326 13.8336 117.826 13.8336C118.327 13.8336 118.753 14.0086 119.105 14.3588C119.469 14.709 119.651 15.1326 119.651 15.6297V33.7262C119.651 34.2233 119.469 34.6469 119.105 34.9971C118.753 35.3473 118.327 35.5223 117.826 35.5223Z" fill="#7F54B3"/>
<path d="M91.891 35.5223C88.8899 35.5223 86.3265 34.4718 84.2007 32.3707C82.075 30.247 81.0121 27.694 81.0121 24.7118C81.0121 21.7296 82.075 19.1823 84.2007 17.0699C86.3265 14.9575 88.8899 13.9013 91.891 13.9013C94.3578 13.9013 96.5688 14.6469 98.5241 16.138C98.9106 16.443 99.1379 16.8327 99.2061 17.3072C99.2743 17.8042 99.155 18.2504 98.848 18.6458C98.5411 19.0411 98.1432 19.2671 97.6544 19.3235C97.1656 19.3913 96.7223 19.2783 96.3244 18.9846C95.0171 17.9793 93.5393 17.4766 91.891 17.4766C89.8903 17.4766 88.1794 18.1826 86.7585 19.5946C85.3375 21.0067 84.627 22.7124 84.627 24.7118C84.627 26.7 85.3375 28.4001 86.7585 29.8121C88.1794 31.2354 89.8903 31.9471 91.891 31.9471C93.778 31.9471 95.4093 31.3201 96.7848 30.0663C97.1599 29.7274 97.5919 29.5692 98.0807 29.5918C98.5809 29.6144 99.0015 29.8121 99.3425 30.1849C99.6722 30.5464 99.8257 30.9756 99.8029 31.4726C99.7916 31.9697 99.5983 32.382 99.2232 32.7096C97.1429 34.5848 94.6988 35.5223 91.891 35.5223Z" fill="#7F54B3"/>
<path d="M77.6018 31.8624C78.0906 31.8624 78.5112 32.0318 78.8636 32.3707C79.216 32.7209 79.3922 33.1445 79.3922 33.6415C79.3922 34.1273 79.216 34.5452 78.8636 34.8954C78.5112 35.2343 78.0906 35.4037 77.6018 35.4037C77.1129 35.4037 76.6867 35.2343 76.3229 34.8954C75.9819 34.5452 75.8113 34.1273 75.8113 33.6415C75.8113 33.1445 75.9819 32.7209 76.3229 32.3707C76.6867 32.0318 77.1129 31.8624 77.6018 31.8624Z" fill="#7F54B3"/>
<path d="M58.1971 35.3868C57.7083 35.3868 57.282 35.2117 56.9182 34.8615C56.5772 34.5226 56.4066 34.1103 56.4066 33.6246V15.6296C56.4066 15.1439 56.5772 14.7316 56.9182 14.3927C57.282 14.0425 57.7083 13.8674 58.1971 13.8674C58.6859 13.8674 59.1065 14.0425 59.4589 14.3927C59.7999 14.7316 59.9704 15.1439 59.9704 15.6296V23.5935L68.6838 14.4944C69.0248 14.1442 69.4397 13.9578 69.9286 13.9352C70.4174 13.9239 70.8437 14.0934 71.2074 14.4435C71.5598 14.7711 71.7417 15.1778 71.7531 15.6635C71.7758 16.1606 71.611 16.5842 71.2586 16.9344L63.9435 24.5763L71.5485 32.5232C71.8895 32.896 72.0543 33.3196 72.043 33.794C72.0316 34.2797 71.8497 34.6977 71.4973 35.0479C71.1449 35.3642 70.73 35.5223 70.2525 35.5223C69.7524 35.5223 69.3204 35.3416 68.9566 34.9801L61.488 27.1518L59.9704 28.7446V33.6246C59.9704 34.1103 59.7999 34.5226 59.4589 34.8615C59.1065 35.2117 58.6859 35.3868 58.1971 35.3868Z" fill="#7F54B3"/>
<path d="M52.6042 29.0665C52.5246 30.8739 51.7971 32.3989 50.4216 33.6415C49.0347 34.8954 47.3921 35.5223 45.4936 35.5223C43.834 35.5223 42.3505 35.1722 41.0432 34.4718C39.4631 33.6246 38.4627 32.3933 38.0421 30.7779C37.9171 30.3035 37.9739 29.8516 38.2126 29.4224C38.4741 29.0044 38.8435 28.7333 39.321 28.609C39.7984 28.4848 40.2474 28.5469 40.6681 28.7954C41.1 29.044 41.3728 29.4054 41.4865 29.8799C41.6798 30.5576 42.18 31.0886 42.9871 31.4726C43.7146 31.8002 44.5501 31.964 45.4936 31.964C46.4372 31.964 47.25 31.6703 47.932 31.0829C48.6255 30.4955 48.9949 29.7669 49.0404 28.8971C49.0517 28.3662 48.8642 27.8974 48.4777 27.4907C47.8411 26.8242 46.7839 26.4797 45.3061 26.4571H45.289C45.2436 26.4571 45.2322 26.4571 45.2549 26.4571C45.2436 26.4571 45.2322 26.4571 45.2208 26.4571C42.7313 26.4232 40.8272 25.7116 39.5085 24.3221C38.4286 23.1699 37.9227 21.8313 37.9909 20.3063C38.0705 18.4989 38.7981 16.9683 40.1736 15.7144C41.5377 14.4605 43.1803 13.8336 45.1015 13.8336C46.7612 13.8336 48.2446 14.1837 49.5519 14.8841C51.132 15.7426 52.1324 16.9739 52.553 18.578C52.6781 19.0524 52.6098 19.5043 52.3484 19.9335C52.1097 20.3628 51.7516 20.6339 51.2741 20.7469C50.7967 20.8711 50.342 20.8146 49.91 20.5774C49.4894 20.3176 49.2166 19.9505 49.0915 19.476C48.9097 18.7983 48.4095 18.2673 47.591 17.8833C46.8635 17.5557 46.0336 17.3919 45.1015 17.3919C44.1466 17.3919 43.3224 17.6912 42.629 18.2899C41.9583 18.8773 41.6002 19.6003 41.5547 20.4588C41.532 20.9897 41.7196 21.4642 42.1174 21.8821C42.7427 22.5373 43.7999 22.8762 45.289 22.8988H45.3572C47.8468 22.944 49.7509 23.6613 51.0695 25.0507C52.1608 26.1916 52.6724 27.5303 52.6042 29.0665Z" fill="#7F54B3"/>
<path d="M32.1593 35.5223C31.6591 35.5223 31.2385 35.3473 30.8975 34.9971C30.5451 34.6582 30.3689 34.2402 30.3689 33.7432V15.6805C30.3689 15.1835 30.5451 14.7655 30.8975 14.4266C31.2385 14.0764 31.6591 13.9013 32.1593 13.9013C32.6595 13.9013 33.0801 14.0764 33.4211 14.4266C33.7849 14.7655 33.9667 15.1835 33.9667 15.6805V33.7432C33.9667 34.2402 33.7849 34.6582 33.4211 34.9971C33.0801 35.3473 32.6595 35.5223 32.1593 35.5223Z" fill="#7F54B3"/>
<path fill-rule="evenodd" clip-rule="evenodd" d="M10.0604 35.3868C9.60573 35.1948 9.28175 34.8728 9.0885 34.421C8.90662 33.9691 8.90662 33.5173 9.0885 33.0654L11.0153 28.4396V28.4227L16.6253 14.9858C16.648 14.9293 16.6765 14.8785 16.7106 14.8333L16.7276 14.7486C16.7617 14.7147 16.7844 14.6921 16.7958 14.6808C16.7958 14.6695 16.8129 14.6412 16.847 14.5961C16.8697 14.5735 16.8868 14.5565 16.8981 14.5452C16.8981 14.5339 16.9152 14.5113 16.9493 14.4774C16.9834 14.4436 17.0004 14.421 17.0004 14.4097C17.0118 14.3984 17.0345 14.3814 17.0686 14.3588C17.1141 14.3249 17.1425 14.308 17.1539 14.308C17.1425 14.308 17.1596 14.2911 17.2051 14.2572C17.2505 14.2233 17.2789 14.2007 17.2903 14.1894L17.3415 14.1555C17.3983 14.1216 17.4267 14.1047 17.4267 14.1047C17.4495 14.0934 17.4892 14.0764 17.5461 14.0538C17.5916 14.0312 17.6029 14.0256 17.5802 14.0369C17.5688 14.0369 17.5916 14.0256 17.6484 14.003C17.6939 13.9917 17.728 13.9804 17.7507 13.9691C17.7621 13.9691 17.8019 13.9578 17.8701 13.9352L17.9212 13.9183C17.944 13.9183 17.9781 13.9126 18.0235 13.9013H18.1088C18.1202 13.9013 18.1486 13.9013 18.194 13.9013C18.2395 13.9013 18.2679 13.9013 18.2793 13.9013C18.2907 13.9013 18.3191 13.9013 18.3646 13.9013H18.4498H18.5521L18.6203 13.9183C18.6431 13.9183 18.6772 13.9296 18.7226 13.9522C18.7909 13.9635 18.8136 13.9691 18.7909 13.9691C18.9159 14.003 19.0296 14.0482 19.1319 14.1047C19.1205 14.0934 19.1376 14.1047 19.183 14.1386C19.2399 14.1611 19.274 14.1781 19.2853 14.1894L19.3365 14.2402C19.382 14.2741 19.4104 14.2967 19.4218 14.308C19.4331 14.308 19.4502 14.3193 19.4729 14.3419C19.507 14.3758 19.5354 14.3984 19.5582 14.4097C19.5582 14.421 19.5695 14.4379 19.5923 14.4605C19.6377 14.5057 19.6605 14.5339 19.6605 14.5452L19.7116 14.5961C19.7457 14.6412 19.7628 14.6695 19.7628 14.6808C19.7628 14.6921 19.7798 14.7147 19.8139 14.7486C19.8481 14.7937 19.8651 14.822 19.8651 14.8333C19.8878 14.8785 19.9106 14.9293 19.9333 14.9858L25.5433 28.4227V28.4396L27.4701 33.0654C27.652 33.5173 27.652 33.9691 27.4701 34.421C27.2769 34.8728 26.9529 35.1948 26.4982 35.3868C26.2708 35.4772 26.0435 35.5223 25.8161 35.5223C25.009 35.5223 24.4577 35.1552 24.1621 34.421L22.6957 30.9135H13.8629L12.4136 34.421C12.1066 35.1552 11.5496 35.5223 10.7425 35.5223C10.5151 35.5223 10.2878 35.4772 10.0604 35.3868ZM21.2122 27.3552L18.2793 20.3233L15.3464 27.3552H21.2122Z" fill="#7F54B3"/>
<path d="M53.2692 39.6229C49.3132 43.1812 43.8055 45.7906 37.5135 46.7903C37.3089 46.8242 37.1213 46.892 36.9508 46.9767C36.6268 47.1462 36.4222 47.3665 36.2858 47.5359C36.1664 47.7053 36.0812 47.8409 36.03 47.9765C35.9277 48.1967 35.8936 48.3662 35.8595 48.5356C35.8083 48.7728 35.7913 48.9931 35.7742 49.2303C35.7515 49.4676 35.7458 49.7104 35.7572 49.9589C35.7572 50.4673 35.7742 51.0434 35.8083 51.6703C35.8595 52.5853 35.9277 53.585 35.9959 54.5339C36.0471 55.4828 36.0982 56.3809 36.0982 57.0756C36.0982 57.3128 36.0982 57.5161 36.0812 57.6856C36.0812 57.8042 36.0641 57.9059 36.0471 57.9736V58.0245L36.6098 58.177L36.0641 57.9567C36.0471 58.0075 36.0471 58.0245 36.0471 58.0245L36.6098 58.177L36.0641 57.9567L37.1213 58.3972L36.1494 57.7872C36.1153 57.855 36.0812 57.9228 36.0641 57.9567L37.1213 58.3972L36.1494 57.7872L37.4112 58.5667L36.5757 57.3636C36.3369 57.5161 36.2176 57.6856 36.1494 57.7872L37.4112 58.5667L36.5757 57.3636L37.4623 58.6683L36.9849 57.1603C36.8314 57.2111 36.695 57.2789 36.5757 57.3636L37.4623 58.6683L36.9849 57.1603L37.4794 58.6683V57.0925C37.3089 57.0925 37.1384 57.1095 36.9849 57.1603L37.4794 58.6683V57.0925V57.5839L37.5305 57.0925H37.4794V57.5839L37.5305 57.0925L37.5135 57.245L37.5476 57.0925H37.5305L37.5135 57.245L37.5476 57.0925C37.5305 57.0925 37.4453 57.0586 37.3089 57.0078C37.0531 56.8892 36.6609 56.652 36.1835 56.3131C35.365 55.72 34.3589 54.8559 33.3017 53.89C31.6989 52.4328 29.9937 50.7553 28.4591 49.3828C27.6747 48.6881 26.9586 48.0612 26.2765 47.5698C25.9355 47.3156 25.5944 47.0953 25.2534 46.909C24.9124 46.7056 24.5543 46.5531 24.1109 46.4515C18.0747 45.1467 12.891 42.3509 9.25901 38.6909C7.43449 36.844 6.00216 34.8107 5.03022 32.6249C4.05828 30.439 3.52968 28.1007 3.52968 25.6777C3.52968 22.7632 4.27995 19.9844 5.67818 17.4258C7.75847 13.5963 11.2881 10.2583 15.8068 7.88608C20.3255 5.51387 25.8161 4.10749 31.7501 4.10749C39.662 4.10749 46.7896 6.61525 51.8709 10.5633C52.6382 11.1563 53.7466 11.0377 54.3434 10.2583C54.9402 9.4958 54.8038 8.39441 54.0365 7.80136C48.273 3.32805 40.4123 0.600006 31.7501 0.600006C23.0878 0.600006 15.2271 3.32805 9.46363 7.80136C6.56486 10.055 4.21174 12.7322 2.55774 15.7652C0.920786 18.7813 0 22.1532 0 25.6777C0 28.609 0.630908 31.4387 1.80747 34.0482C3.54673 37.9454 6.46255 41.3681 10.1627 44.0792C13.88 46.7903 18.3816 48.8067 23.3607 49.8742L23.4289 49.5692L23.3266 49.8573L23.3607 49.8742L23.4289 49.5692L23.3266 49.8573L23.3436 49.8742C23.3777 49.8912 23.4971 49.942 23.6505 50.0267C23.9404 50.2131 24.3497 50.5012 24.8271 50.8909C25.6456 51.5687 26.6516 52.4837 27.7259 53.4834C29.3287 54.9914 31.0509 56.6689 32.6538 58.0075C33.4552 58.6683 34.2225 59.2614 34.9728 59.7189C35.3479 59.9561 35.706 60.1425 36.1153 60.3119C36.5074 60.4644 36.9508 60.5831 37.4794 60.6C37.667 60.6 37.8886 60.5661 38.0762 60.4983C38.4513 60.3797 38.7412 60.1594 38.9117 59.9561C39.0822 59.7867 39.1845 59.6172 39.2528 59.4647C39.3892 59.2106 39.4403 59.0072 39.4915 58.8039C39.5426 58.5158 39.5767 58.2447 39.5938 57.9567C39.6165 57.6743 39.6279 57.3806 39.6279 57.0756C39.6279 55.9742 39.5426 54.6356 39.4574 53.3309C39.4062 52.687 39.3551 52.06 39.338 51.467C39.3039 50.8909 39.2869 50.3656 39.2869 49.9589C39.2869 49.7726 39.2869 49.6031 39.2869 49.4845C39.3039 49.3998 39.3039 49.3151 39.3039 49.2812L39.321 49.2473V49.2303L38.8606 49.1456L39.3039 49.2812C39.321 49.2473 39.321 49.2303 39.321 49.2303L38.8606 49.1456L39.3039 49.2812L38.0762 48.8914L39.0822 49.6709C39.2528 49.4676 39.2698 49.3489 39.3039 49.2812L38.0762 48.8914L39.0822 49.6709L37.8545 48.7051L38.7242 50.0098C38.8947 49.8912 39.014 49.7726 39.0822 49.6709L37.8545 48.7051L38.7242 50.0098L37.8204 48.6542L38.0762 50.2639C38.3149 50.2301 38.5536 50.1284 38.7242 50.0098L37.8204 48.6542L38.0762 50.2639C44.9821 49.1626 51.1036 46.282 55.6393 42.2154C56.3555 41.5715 56.4237 40.4532 55.7587 39.7415C55.1107 39.0129 53.9853 38.962 53.2692 39.6229Z" fill="#7F54B3"/>
</svg>
