<svg width="119" height="108" viewBox="0 0 119 108" fill="none" xmlns="http://www.w3.org/2000/svg">
<path d="M0.00309016 68.4647C-0.456763 64.3352 50.5242 42.4995 74.5873 32.7526C57.376 33.3634 36.8432 30.1561 35.221 25.4817C34.2864 22.7884 40.5037 7.94013 44.8328 0.883285C48.1919 -4.59238 115.587 17.0455 117.982 20.4052C121.2 24.9188 115.807 76.3879 115.297 79.0491C114.787 81.7111 90.1873 80.2793 85.8047 77.666C82.2982 75.575 79.7533 61.7004 84.7966 48.3967C76.7298 56.0508 31.6531 106.155 29.0535 106.977C25.8038 108.005 0.577882 73.6267 0.00309016 68.4647Z" fill="#FA0CF7"/>
<path fill-rule="evenodd" clip-rule="evenodd" d="M104.736 80.4442C97.3175 80.2579 88.293 79.1541 85.8014 77.6683C82.2955 75.5775 79.7504 61.7028 84.7939 48.3991C81.3933 51.6257 71.4159 62.3959 60.8161 73.8379C53.6039 81.6231 46.1035 89.7191 40.1908 95.9622C31.0971 89.8588 24.5418 80.6496 21.822 70.0537C20.6538 65.5027 20.2314 60.8446 20.5301 56.2476C37.3337 48.2473 60.5424 38.4428 74.5845 32.7551C57.9712 33.3446 38.2632 30.3767 35.4549 25.9658C40.7759 21.2841 47.2006 17.8833 54.2346 16.1281L54.2529 16.1236C63.9 13.7222 74.0874 14.5687 83.2109 18.5298C92.3342 22.4908 99.8766 29.3413 104.649 38.0028C109.421 46.6643 111.153 56.6448 109.571 66.3729C108.765 71.3351 107.12 76.0878 104.736 80.4442Z" fill="#E5BDBE"/>
<path d="M53.9287 16.2915C63.5758 13.8902 73.7631 14.7367 82.8867 18.6977C92.01 22.6588 99.5524 29.5093 104.324 38.1708C109.097 46.8323 110.828 56.8128 109.247 66.5409C107.666 76.269 102.862 85.192 95.5902 91.9048L100.578 106.64L84.9201 99.2127C82.0782 100.597 79.0976 101.684 76.0264 102.454C64.4973 105.33 52.2753 103.551 42.0493 97.5062C31.8232 91.4618 24.4306 81.6469 21.4978 70.2217C18.5651 58.7964 20.3323 46.6964 26.4109 36.5834C32.4895 26.4704 42.3814 19.1729 53.9105 16.2961L53.9287 16.2915Z" stroke="black" stroke-miterlimit="10"/>
</svg>
