<svg width="149" height="108" viewBox="0 0 149 108" fill="none" xmlns="http://www.w3.org/2000/svg">
<path d="M7.50693 50.5256C8.60963 20.3358 51.7215 11.4836 74.1271 10.992C96.5324 10.5004 144.269 12.3541 148.119 46.7157C152.827 88.7339 68.5248 107.465 30.8318 82.2569L0 99.5119L14.7547 68.6778C10.1993 63.5912 7.25093 57.5359 7.50693 50.5256Z" fill="#00F6FF"/>
<mask id="mask0_4263_14" style="mask-type:alpha" maskUnits="userSpaceOnUse" x="0" y="10" width="149" height="90">
<path d="M7.50693 50.5256C8.60963 20.3358 51.7215 11.4836 74.1271 10.992C96.5324 10.5004 144.269 12.3541 148.119 46.7157C152.827 88.7339 68.5248 107.465 30.8318 82.2569L0 99.5119L14.7547 68.6778C10.1993 63.5912 7.25093 57.5359 7.50693 50.5256Z" fill="#00F6FF"/>
</mask>
<g mask="url(#mask0_4263_14)">
<path fill-rule="evenodd" clip-rule="evenodd" d="M60.1561 0.5H87.1064V14.0254C88.826 14.5932 90.496 15.27 92.1083 16.0476L101.636 6.52L120.693 25.5768L111.305 34.9651C112.133 36.62 112.854 38.3378 113.46 40.1094H126.715V67.0597H113.46C112.854 68.8305 112.133 70.5475 111.305 72.2017L120.695 81.592L101.639 100.649L92.1097 91.12C90.497 91.898 88.8265 92.575 87.1064 93.143V106.668H60.1561V92.865C58.5278 92.29 56.9461 91.616 55.4179 90.851L45.6209 100.648L26.5642 81.592L36.5005 71.6554C35.7843 70.1704 35.1535 68.6363 34.6147 67.0597H20.5469V40.1094H34.6144C35.1531 38.5329 35.7838 36.999 36.4999 35.514L26.5628 25.5769L45.6195 6.5201L55.4168 16.3174C56.9453 15.5522 58.5274 14.8782 60.1561 14.3027V0.5ZM73.672 71.1217C83.9628 71.1217 92.3051 62.7794 92.3051 52.4886C92.3051 42.1978 83.9628 33.8555 73.672 33.8555C63.3812 33.8555 55.0389 42.1978 55.0389 52.4886C55.0389 62.7794 63.3812 71.1217 73.672 71.1217Z" fill="#98E891"/>
</g>
<path d="M87.1064 0.5H87.6064V0H87.1064V0.5ZM60.1561 0.5V0H59.6561V0.5H60.1561ZM87.1064 14.0254H86.6064V14.3868L86.9496 14.5002L87.1064 14.0254ZM92.1083 16.0476L91.8911 16.498L92.2108 16.6522L92.4618 16.4012L92.1083 16.0476ZM101.636 6.52L101.99 6.1665L101.636 5.8129L101.283 6.1665L101.636 6.52ZM120.693 25.5768L121.046 25.9303L121.4 25.5768L121.046 25.2232L120.693 25.5768ZM111.305 34.9651L110.951 34.6115L110.696 34.8665L110.857 35.1889L111.305 34.9651ZM113.46 40.1094L112.987 40.2711L113.102 40.6094H113.46V40.1094ZM126.715 40.1094H127.215V39.6094H126.715V40.1094ZM126.715 67.0597V67.5597H127.215V67.0597H126.715ZM113.46 67.0597V66.5597H113.102L112.986 66.898L113.46 67.0597ZM111.305 72.2017L110.858 71.9779L110.697 72.3003L110.952 72.5553L111.305 72.2017ZM120.695 81.592L121.049 81.945L121.403 81.592L121.049 81.238L120.695 81.592ZM101.639 100.649L101.285 101.002L101.639 101.356L101.992 101.002L101.639 100.649ZM92.1097 91.12L92.4633 90.766L92.2122 90.515L91.8925 90.67L92.1097 91.12ZM87.1064 93.143L86.9496 92.668L86.6064 92.781V93.143H87.1064ZM87.1064 106.668V107.168H87.6064V106.668H87.1064ZM60.1561 106.668H59.6561V107.168H60.1561V106.668ZM60.1561 92.865H60.6561V92.512L60.3226 92.394L60.1561 92.865ZM55.418 90.851L55.6418 90.404L55.3194 90.243L55.0644 90.498L55.418 90.851ZM45.6209 100.648L45.2673 101.002L45.6209 101.356L45.9745 101.002L45.6209 100.648ZM26.5642 81.592L26.2106 81.238L25.8571 81.592L26.2106 81.945L26.5642 81.592ZM36.5005 71.6554L36.8541 72.0089L37.1051 71.7579L36.9509 71.4382L36.5005 71.6554ZM34.6147 67.0597L35.0879 66.898L34.9723 66.5597H34.6147V67.0597ZM20.5469 67.0597H20.0469V67.5597H20.5469V67.0597ZM20.5469 40.1094V39.6094H20.0469V40.1094H20.5469ZM34.6144 40.1094V40.6094H34.972L35.0876 40.2711L34.6144 40.1094ZM36.4999 35.514L36.9503 35.7312L37.1045 35.4115L36.8535 35.1605L36.4999 35.514ZM26.5628 25.5769L26.2092 25.2233L25.8557 25.5769L26.2092 25.9304L26.5628 25.5769ZM45.6195 6.5201L45.9731 6.1666L45.6195 5.813L45.266 6.1666L45.6195 6.5201ZM55.4168 16.3174L55.0632 16.6709L55.3182 16.9259L55.6406 16.7645L55.4168 16.3174ZM60.1561 14.3027L60.3226 14.7742L60.6561 14.6563V14.3027H60.1561ZM87.1064 0H60.1561V1H87.1064V0ZM87.6064 14.0254V0.5H86.6064V14.0254H87.6064ZM92.3255 15.5973C90.6938 14.8103 89.0036 14.1253 87.2631 13.5506L86.9496 14.5002C88.6484 15.0611 90.2982 15.7297 91.8911 16.498L92.3255 15.5973ZM92.4618 16.4012L101.99 6.8736L101.283 6.1665L91.7547 15.6941L92.4618 16.4012ZM101.283 6.8736L120.339 25.9303L121.046 25.2232L101.99 6.1665L101.283 6.8736ZM120.339 25.2232L110.951 34.6115L111.658 35.3186L121.046 25.9303L120.339 25.2232ZM113.933 39.9477C113.32 38.1547 112.59 36.4161 111.752 34.7413L110.857 35.1889C111.676 36.8239 112.389 38.5209 112.987 40.2711L113.933 39.9477ZM126.715 39.6094H113.46V40.6094H126.715V39.6094ZM127.215 67.0597V40.1094H126.215V67.0597H127.215ZM113.46 67.5597H126.715V66.5597H113.46V67.5597ZM111.752 72.4255C112.59 70.7514 113.32 69.0136 113.933 67.2214L112.986 66.898C112.389 68.6474 111.676 70.3437 110.858 71.9779L111.752 72.4255ZM121.049 81.238L111.659 71.8482L110.952 72.5553L120.342 81.945L121.049 81.238ZM101.992 101.002L121.049 81.945L120.342 81.238L101.285 100.295L101.992 101.002ZM91.7562 91.473L101.285 101.002L101.992 100.295L92.4633 90.766L91.7562 91.473ZM87.2631 93.618C89.0041 93.043 90.6948 92.358 92.3269 91.57L91.8925 90.67C90.2992 91.438 88.6489 92.107 86.9496 92.668L87.2631 93.618ZM87.6064 106.668V93.143H86.6064V106.668H87.6064ZM60.1561 107.168H87.1064V106.168H60.1561V107.168ZM59.6561 92.865V106.668H60.6561V92.865H59.6561ZM55.1941 91.299C56.7407 92.073 58.3416 92.755 59.9895 93.337L60.3226 92.394C58.7141 91.826 57.1515 91.16 55.6418 90.404L55.1941 91.299ZM45.9745 101.002L55.7715 91.205L55.0644 90.498L45.2673 100.295L45.9745 101.002ZM26.2106 81.945L45.2673 101.002L45.9745 100.295L26.9177 81.238L26.2106 81.945ZM36.1469 71.3018L26.2106 81.238L26.9177 81.945L36.8541 72.0089L36.1469 71.3018ZM34.1416 67.2214C34.6869 68.8171 35.3253 70.3697 36.0501 71.8726L36.9509 71.4382C36.2432 69.9711 35.6202 68.4556 35.0879 66.898L34.1416 67.2214ZM20.5469 67.5597H34.6147V66.5597H20.5469V67.5597ZM20.0469 40.1094V67.0597H21.0469V40.1094H20.0469ZM34.6144 39.6094H20.5469V40.6094H34.6144V39.6094ZM36.0496 35.2968C35.3248 36.7997 34.6865 38.3521 34.1413 39.9477L35.0876 40.2711C35.6198 38.7136 36.2428 37.1983 36.9503 35.7312L36.0496 35.2968ZM26.2092 25.9304L36.1464 35.8676L36.8535 35.1605L26.9163 25.2233L26.2092 25.9304ZM45.266 6.1666L26.2092 25.2233L26.9163 25.9304L45.9731 6.8737L45.266 6.1666ZM55.7703 15.9638L45.9731 6.1666L45.266 6.8737L55.0632 16.6709L55.7703 15.9638ZM59.9895 13.8313C58.3411 14.4138 56.7399 15.0959 55.1929 15.8703L55.6406 16.7645C57.1507 16.0085 58.7137 15.3427 60.3226 14.7742L59.9895 13.8313ZM59.6561 0.5V14.3027H60.6561V0.5H59.6561ZM91.8051 52.4886C91.8051 62.5033 83.6866 70.6217 73.672 70.6217V71.6217C84.2389 71.6217 92.8051 63.0555 92.8051 52.4886H91.8051ZM73.672 34.3555C83.6866 34.3555 91.8051 42.474 91.8051 52.4886H92.8051C92.8051 41.9217 84.2389 33.3555 73.672 33.3555V34.3555ZM55.5389 52.4886C55.5389 42.474 63.6573 34.3555 73.672 34.3555V33.3555C63.105 33.3555 54.5389 41.9217 54.5389 52.4886H55.5389ZM73.672 70.6217C63.6573 70.6217 55.5389 62.5033 55.5389 52.4886H54.5389C54.5389 63.0555 63.105 71.6217 73.672 71.6217V70.6217Z" fill="black"/>
</svg>
