<svg width="107" height="107" viewBox="0 0 107 107" fill="none" xmlns="http://www.w3.org/2000/svg">
<path d="M7.05551 12.4719C24.5143 -2.09161 49.4022 10.8421 54.9742 51.9128C54.9742 33.6591 67.6039 -4.97447 93.6065 8.88638C127.781 27.1034 85.8058 81.5753 49.4022 106.999C26.3715 65.2771 -17.0153 32.5509 7.05551 12.4719Z" fill="#FF4B00"/>
<mask id="mask0_4263_44" style="mask-type:alpha" maskUnits="userSpaceOnUse" x="0" y="5" width="107" height="102">
<path d="M7.05551 12.4719C24.5143 -2.09161 49.4022 10.8421 54.9742 51.9128C54.9742 33.6591 67.6039 -4.97447 93.6065 8.88638C127.781 27.1034 85.8058 81.5753 49.4022 106.999C26.3715 65.2771 -17.0153 32.5509 7.05551 12.4719Z" fill="#FF4B00"/>
</mask>
<g mask="url(#mask0_4263_44)">
<path fill-rule="evenodd" clip-rule="evenodd" d="M65.2809 21.6195C67.1544 18.1687 68.2751 14.2283 68.2751 10.9996C68.2751 3.45834 62.1616 0 54.6205 0C47.0792 0 40.9658 3.45834 40.9658 10.9996C40.9658 14.2283 42.0864 18.1687 43.9599 21.6195H21.9985V46.0648C18.4598 44.0654 14.3472 42.8608 10.9996 42.8608C3.45834 42.8608 0 48.9742 0 56.5153C0 64.0566 3.45834 70.17 10.9996 70.17C14.3472 70.17 18.4598 68.9654 21.9985 66.9659V90.6509H91.0306V66.5209C87.3324 68.7853 82.8635 70.1702 79.2743 70.1702C71.7338 70.1702 68.2751 64.0568 68.2751 56.5155C68.2751 48.9743 71.7338 42.8608 79.2743 42.8608C82.8635 42.8608 87.3324 44.2456 91.0306 46.5101V21.6195H65.2809Z" fill="#D2B6DE"/>
</g>
<mask id="mask1_4263_44" style="mask-type:luminance" maskUnits="userSpaceOnUse" x="0" y="0" width="92" height="91">
<path fill-rule="evenodd" clip-rule="evenodd" d="M65.2809 21.6195C67.1544 18.1687 68.2751 14.2283 68.2751 10.9996C68.2751 3.45834 62.1616 0 54.6205 0C47.0792 0 40.9658 3.45834 40.9658 10.9996C40.9658 14.2283 42.0864 18.1687 43.9599 21.6195H21.9985V46.0648C18.4598 44.0654 14.3472 42.8608 10.9996 42.8608C3.45834 42.8608 0 48.9742 0 56.5153C0 64.0566 3.45834 70.17 10.9996 70.17C14.3472 70.17 18.4598 68.9654 21.9985 66.9659V90.6509H91.0306V66.5209C87.3324 68.7853 82.8635 70.1702 79.2743 70.1702C71.7338 70.1702 68.2751 64.0568 68.2751 56.5155C68.2751 48.9743 71.7338 42.8608 79.2743 42.8608C82.8635 42.8608 87.3324 44.2456 91.0306 46.5101V21.6195H65.2809Z" fill="white"/>
</mask>
<g mask="url(#mask1_4263_44)">
<path d="M65.2809 21.6194L64.5085 21.2001L63.8037 22.4982H65.2809V21.6194ZM43.9599 21.6194V22.4982H45.437L44.7322 21.2001L43.9599 21.6194ZM21.9984 21.6194V20.7406H21.1196V21.6194H21.9984ZM21.9984 46.0648L21.5661 46.8299L22.8773 47.5708V46.0648H21.9984ZM21.9984 66.9659H22.8773V65.4599L21.5661 66.2007L21.9984 66.9659ZM21.9984 90.6509H21.1196V91.5297H21.9984V90.6509ZM91.0305 90.6509V91.5297H91.9094V90.6509H91.0305ZM91.0305 66.5208H91.9094V64.9522L90.5718 65.7713L91.0305 66.5208ZM91.0305 46.51L90.5718 47.2595L91.9094 48.0787V46.51H91.0305ZM91.0305 21.6194H91.9094V20.7406H91.0305V21.6194ZM67.3962 10.9995C67.3962 14.0511 66.3284 17.8481 64.5085 21.2001L66.0533 22.0387C67.9804 18.4891 69.1538 14.4053 69.1538 10.9995H67.3962ZM54.6204 0.87878C58.2729 0.87878 61.4836 1.71851 63.7569 3.38111C65.9944 5.01761 67.3962 7.50025 67.3962 10.9995H69.1538C69.1538 6.95757 67.499 3.94041 64.7945 1.96239C62.1257 0.0105709 58.5091 -0.878906 54.6204 -0.878906V0.87878ZM41.8446 10.9995C41.8446 7.50025 43.2463 5.01761 45.4839 3.38111C47.7572 1.71851 50.9678 0.87878 54.6204 0.87878V-0.878906C50.7316 -0.878906 47.115 0.0105709 44.4462 1.96239C41.7417 3.94041 40.0869 6.95757 40.0869 10.9995H41.8446ZM44.7322 21.2001C42.9124 17.8481 41.8446 14.0511 41.8446 10.9995H40.0869C40.0869 14.4053 41.2603 18.4891 43.1874 22.0387L44.7322 21.2001ZM21.9984 22.4982H43.9599V20.7406H21.9984V22.4982ZM22.8773 46.0648V21.6194H21.1196V46.0648H22.8773ZM10.9995 43.7395C14.1649 43.7395 18.1297 44.8883 21.5661 46.8299L22.4308 45.2996C18.7897 43.2424 14.5293 41.9818 10.9995 41.9818V43.7395ZM0.87878 56.5153C0.87878 52.8628 1.71851 49.6521 3.38111 47.3788C5.01761 45.1413 7.50025 43.7395 10.9995 43.7395V41.9818C6.95756 41.9818 3.94041 43.6367 1.96239 46.3412C0.0105709 49.01 -0.878906 52.6266 -0.878906 56.5153H0.87878ZM10.9995 69.2911C7.50025 69.2911 5.01761 67.8894 3.38111 65.6518C1.71851 63.3785 0.87878 60.1678 0.87878 56.5153H-0.878906C-0.878906 60.4041 0.0105709 64.0207 1.96239 66.6894C3.94041 69.3939 6.95756 71.0488 10.9995 71.0488V69.2911ZM21.5661 66.2007C18.1297 68.1424 14.1649 69.2911 10.9995 69.2911V71.0488C14.5293 71.0488 18.7897 69.7883 22.4308 67.731L21.5661 66.2007ZM22.8773 90.6509V66.9659H21.1196V90.6509H22.8773ZM91.0305 89.772H21.9984V91.5297H91.0305V89.772ZM90.1517 66.5208V90.6509H91.9094V66.5208H90.1517ZM79.2742 71.049C83.0559 71.049 87.6813 69.602 91.4893 67.2703L90.5718 65.7713C86.9835 67.9686 82.6719 69.2913 79.2742 69.2913V71.049ZM67.3962 56.5155C67.3962 60.4042 68.2857 64.0208 70.2375 66.6896C72.2154 69.394 75.2324 71.049 79.2742 71.049V69.2913C75.7756 69.2913 73.2928 67.8894 71.6564 65.6519C69.9937 63.3786 69.1539 60.1679 69.1539 56.5155H67.3962ZM79.2742 41.9819C75.2324 41.9819 72.2154 43.6369 70.2375 46.3414C68.2857 49.01 67.3962 52.6267 67.3962 56.5155H69.1539C69.1539 52.8629 69.9937 49.6522 71.6564 47.3789C73.2928 45.1414 75.7756 43.7396 79.2742 43.7396V41.9819ZM91.4893 45.7605C87.6813 43.4289 83.0559 41.9819 79.2742 41.9819V43.7396C82.6719 43.7396 86.9835 45.0623 90.5718 47.2595L91.4893 45.7605ZM90.1517 21.6194V46.51H91.9094V21.6194H90.1517ZM65.2809 22.4982H91.0305V20.7406H65.2809V22.4982Z" fill="black"/>
</g>
</svg>
