<svg width="147" height="110" viewBox="0 0 147 110" fill="none" xmlns="http://www.w3.org/2000/svg">
<path fill-rule="evenodd" clip-rule="evenodd" d="M90.7823 5.7834C93.7083 13.4454 100.841 24.7534 106.992 31.4834C116.003 41.4502 128.284 47.8622 141.613 49.5594L146.863 50.2214V59.8454L141.613 60.5074C124.332 62.6864 110.372 71.9444 99.3193 88.5554C96.23 93.2088 93.5241 98.1056 91.2283 103.197C89.8173 106.682 88.5783 109.626 88.4733 109.74C87.7133 110.567 79.3003 106.995 79.0523 105.74C78.6523 103.718 84.4733 91.1104 89.2523 83.6334C94.1864 76.1671 100.241 69.5054 107.203 63.8824L112.043 60.0334L0.863281 60.0334L0.863281 50.0334L112.043 50.0334L107.203 46.1844C100.243 40.5623 94.1895 33.902 89.2563 26.4374C84.4563 18.9374 78.6563 6.3524 79.0563 4.3114C79.2993 3.0434 84.0893 0.804398 87.9743 0.137398C88.3103 0.0803978 89.5743 2.6204 90.7823 5.7834Z" fill="#C23434"/>
</svg>
