<svg width="28" height="28" viewBox="0 0 28 28" fill="none" xmlns="http://www.w3.org/2000/svg">
<path d="M5.9974 16.668H16.6641V14.0013H5.9974V16.668ZM5.9974 12.668H21.9974V10.0013H5.9974V12.668ZM5.9974 8.66797H21.9974V6.0013H5.9974V8.66797ZM0.664062 27.3346V3.33464C0.664062 2.6013 0.925174 1.97352 1.4474 1.4513C1.96962 0.92908 2.5974 0.667969 3.33073 0.667969H24.6641C25.3974 0.667969 26.0252 0.92908 26.5474 1.4513C27.0696 1.97352 27.3307 2.6013 27.3307 3.33464V19.3346C27.3307 20.068 27.0696 20.6957 26.5474 21.218C26.0252 21.7402 25.3974 22.0013 24.6641 22.0013H5.9974L0.664062 27.3346ZM4.86406 19.3346H24.6641V3.33464H3.33073V20.8346L4.86406 19.3346Z" fill="black"/>
</svg>
