<svg id="Layer_2" height="512" viewBox="0 0 33 33" width="512" xmlns="http://www.w3.org/2000/svg" data-name="Layer 2"><path d="m20.5 15a4.483 4.483 0 0 0 -.057-.753 5.5 5.5 0 1 0 -10.146 3.6 1 1 0 0 1 .1.8l-.407 1.363 1.363-.408a1 1 0 0 1 .8.1 5.666 5.666 0 0 0 2.072.747 5.993 5.993 0 0 0 .775.051 5.506 5.506 0 0 0 5.5-5.5z"/><path d="m23.5 19a4.453 4.453 0 0 0 -1.085-2.93 7.505 7.505 0 0 1 -6.331 6.343 4.5 4.5 0 0 0 2.916 1.087 4.425 4.425 0 0 0 2.316-.652 1 1 0 0 1 .812-.105l.879.264-.265-.879a1 1 0 0 1 .106-.812 4.425 4.425 0 0 0 .652-2.316z"/><path d="m16.5 1.5a15 15 0 1 0 15 15 15.017 15.017 0 0 0 -15-15zm8.958 22.712a1 1 0 0 1 -.958 1.288 1.014 1.014 0 0 1 -.288-.042l-2.252-.678a6.431 6.431 0 0 1 -2.96.72 6.516 6.516 0 0 1 -5.566-3.189 7.587 7.587 0 0 1 -1.914-.671l-2.733.818a1.012 1.012 0 0 1 -.287.042 1 1 0 0 1 -.958-1.287l.818-2.734a7.494 7.494 0 1 1 13.967-5.035 6.448 6.448 0 0 1 2.453 8.515z"/></svg>