<svg width="10" height="10" viewBox="0 0 10 10" fill="none" xmlns="http://www.w3.org/2000/svg">
<path d="M5.00052 5.93385L1.73385 9.20052C1.61163 9.32274 1.45608 9.38385 1.26719 9.38385C1.0783 9.38385 0.922743 9.32274 0.800521 9.20052C0.678299 9.0783 0.617188 8.92274 0.617188 8.73385C0.617188 8.54497 0.678299 8.38941 0.800521 8.26719L4.06719 5.00052L0.800521 1.73385C0.678299 1.61163 0.617188 1.45608 0.617188 1.26719C0.617188 1.0783 0.678299 0.922743 0.800521 0.800521C0.922743 0.678299 1.0783 0.617188 1.26719 0.617188C1.45608 0.617188 1.61163 0.678299 1.73385 0.800521L5.00052 4.06719L8.26719 0.800521C8.38941 0.678299 8.54497 0.617188 8.73385 0.617188C8.92274 0.617188 9.0783 0.678299 9.20052 0.800521C9.32274 0.922743 9.38385 1.0783 9.38385 1.26719C9.38385 1.45608 9.32274 1.61163 9.20052 1.73385L5.93385 5.00052L9.20052 8.26719C9.32274 8.38941 9.38385 8.54497 9.38385 8.73385C9.38385 8.92274 9.32274 9.0783 9.20052 9.20052C9.0783 9.32274 8.92274 9.38385 8.73385 9.38385C8.54497 9.38385 8.38941 9.32274 8.26719 9.20052L5.00052 5.93385Z" fill="#2BAB2D"/>
</svg>
