<svg width="800" height="688" viewBox="0 0 800 688" fill="none" xmlns="http://www.w3.org/2000/svg">
<path d="M196.619 2.60943C255.123 1.79045 313.625 0.722907 372.13 0.238312C414.792 -0.115746 457.467 -0.119322 500.124 0.529784C524.516 0.899936 548.875 3.60545 573.267 3.94341C596.043 4.25992 618.95 3.97381 641.608 1.88343C668.033 -0.553845 686.938 10.3683 701.512 30.8536C719.964 56.7929 737.591 83.3258 756.426 108.979C767.134 123.563 779.64 136.819 791.156 150.82C802.586 164.716 802.334 179.47 793.849 194.693C776.822 225.242 757.474 254.128 735.44 281.395C708.555 314.665 683.54 349.451 656.591 382.666C626.891 419.27 595.925 454.846 565.487 490.85C545.672 514.288 525.94 537.795 505.935 561.07C492.798 576.357 478.941 591.031 465.95 606.438C449.588 625.841 433.801 645.728 417.718 665.365C414.579 669.197 411.023 672.695 407.99 676.604C395.925 692.161 382.754 689.336 371.145 677.135C343.893 648.496 314.619 621.518 293.086 587.896C284.588 574.628 277.57 560.384 268.709 547.38C242.466 508.868 216.736 469.929 188.748 432.703C157.712 391.423 123.935 352.215 92.272 311.391C74.798 288.862 59.1568 264.906 42.7843 241.525C29.9595 223.211 17.4119 204.702 4.47808 186.466C-1.85027 177.543 -1.49263 169.112 5.68688 161.328C23.388 142.13 41.4986 123.311 59.2212 104.135C83.2435 78.1401 107.253 52.1311 130.884 25.7824C145.15 9.87656 162.485 2.60943 183.705 4.10971C187.993 4.4137 192.32 4.15442 196.63 4.15442C196.626 3.63942 196.623 3.12442 196.619 2.60943ZM386.167 613.732C410.454 545.161 434.761 475.324 459.935 405.801C485.032 336.49 511 267.493 537.146 196.844C521.627 197.679 509.102 199.162 496.619 198.872C460.262 198.028 423.917 196.583 387.578 195.13C377.373 194.722 367.207 192.83 357.013 192.73C324.121 192.412 291.224 192.612 258.796 192.612C266.175 213.75 274.287 235.192 281.173 257.022C306.924 338.65 331.522 420.577 351.652 503.866C360.707 541.331 374.659 577.611 386.167 613.732ZM770.862 195.038C738.745 195.712 708.768 196.528 678.784 196.887C665.263 197.05 651.734 196.041 638.208 196.031C616.368 196.013 594.448 197.61 572.709 196.227C552.544 194.945 553.401 193.899 546.624 212.741C522.233 280.549 496.796 347.984 472.658 415.879C446.16 490.409 420.607 565.276 394.89 640.081C393.626 643.757 394.727 648.247 394.727 653.662C396.995 651.605 398.096 650.831 398.917 649.83C414.159 631.222 429.119 612.376 444.66 594.024C457.031 579.417 470.324 565.592 482.816 551.083C503.931 526.562 524.802 501.83 545.66 477.089C578.626 437.98 611.835 399.067 644.31 359.552C672.756 324.938 700.671 289.874 728.157 254.495C742.986 235.403 756.428 215.232 770.862 195.038ZM270.122 402.597C270.864 403.017 271.606 403.436 272.346 403.856C271.007 407.071 269.902 410.409 268.285 413.478C260.907 427.488 253.247 441.352 246.048 455.452C244.741 458.011 243.746 462.216 244.952 464.318C250.448 473.909 256.78 483.022 263.266 493.005C271.113 479.136 278.335 466.37 285.557 453.605C286.882 454.309 288.209 455.014 289.534 455.718C283.533 468.677 277.242 481.514 271.733 494.681C270.324 498.046 269.814 503.439 271.565 506.218C288.208 532.653 304.405 559.47 322.789 584.676C338.4 606.077 356.723 625.498 373.848 645.796C375.37 644.95 376.894 644.102 378.415 643.256C331.832 492.617 298.405 338.151 244.524 190.564C171.669 188.349 99.405 186.153 27.3148 183.961C59.2105 227.134 91.9859 271.502 124.908 316.065C139.914 292.233 153.533 270.603 167.152 248.975C168.407 249.717 169.664 250.461 170.919 251.203C157.458 274.662 143.997 298.123 130.104 322.335C135.496 328.965 141.386 336.211 147.4 343.609C165.231 318.671 182.063 295.133 198.895 271.594C199.679 272.13 200.462 272.666 201.243 273.203C189.87 301.762 170.079 325.137 153.921 347.584C158.089 353.2 161.803 358.206 165.809 363.6C178.283 343.625 190.051 324.779 201.819 305.935C202.617 306.322 203.414 306.706 204.212 307.092C203.527 309.149 203.114 311.346 202.116 313.237C193.241 330.065 184.467 346.954 175.172 363.55C172.836 367.72 171.325 370.814 175.079 374.744C180.315 380.223 185.32 385.924 190.223 391.308C202.456 373.986 214.731 356.607 227.005 339.228C228.025 339.807 229.044 340.386 230.063 340.966C227.842 346.284 226.188 351.936 223.288 356.854C215.919 369.339 207.793 381.377 200.449 393.876C198.94 396.444 198.096 401.043 199.387 403.316C203.564 410.663 208.879 417.364 214.202 424.951C226.04 405.392 237.257 386.857 248.474 368.325C249.633 368.979 250.79 369.634 251.949 370.288C244.961 392.832 231.419 412.251 219.731 432.509C225.861 439.959 231.673 447.022 237.341 453.91C248.444 436.535 259.284 419.567 270.122 402.597ZM662.756 21.3852C638.348 20.2229 616.114 19.1518 593.876 18.1361C592.58 18.0771 591.267 18.5009 589.955 18.6404C579.172 19.7902 568.382 21.9503 557.605 21.8824C515.574 21.6177 473.55 20.6181 431.521 19.9583C422.197 19.8117 412.87 19.9368 403.545 19.9368C403.03 20.9614 402.515 21.9861 402 23.0125C429.657 57.805 456.507 93.2859 485.32 127.095C499.353 143.56 516.909 157.063 533.189 171.549C537.493 175.377 542.216 178.567 548.41 172.425C588.603 132.565 623.842 88.8208 653.236 40.4293C656.741 34.6624 659.318 28.3305 662.756 21.3852ZM392.029 27.5992C350.593 76.3984 310.544 123.567 270.818 170.354C352.959 173.559 434.863 176.754 516.766 179.95C465.787 136.731 429.403 83.349 392.029 27.5992ZM252.752 168.126C295.19 119.039 336.621 71.1197 379.891 21.0705C305.962 22.6066 234.945 24.08 165.542 25.5213C190.348 73.5266 216.203 122.084 252.752 168.126ZM675.755 32.9315C644.571 87.9375 607.273 134.072 564.26 178.571C636.011 182.729 705.395 184.973 778.315 173.886C734.775 132.508 707.479 82.4657 675.755 32.9315ZM235.335 170.104C220.666 147.568 205.315 125.825 191.948 102.926C178.474 79.8424 166.969 55.6091 154.168 31.0467C115.01 77.2603 76.0032 123.299 36.3433 170.104C102.375 170.104 168.532 170.104 235.335 170.104Z" fill="black"/>
<path d="M362.612 270.111C352.258 288.443 341.905 306.776 330.808 326.424C326.01 316.021 345.784 279.748 360.103 268.352C360.938 268.938 361.775 269.525 362.612 270.111Z" fill="black"/>
<path d="M339.168 354.608C348.627 338.403 358.087 322.199 367.546 305.996C368.971 306.817 370.397 307.639 371.824 308.46C366.121 326.8 355.964 342.62 343.418 357.09C342.002 356.262 340.586 355.436 339.168 354.608Z" fill="black"/>
<path d="M339.684 394.591C342.525 380.092 351.818 369.443 361.501 359.027C362.488 359.616 363.475 360.206 364.46 360.794C357.331 372.734 350.202 384.675 343.072 396.615C341.944 395.941 340.814 395.266 339.684 394.591Z" fill="black"/>
<path d="M131.89 153.465C129.267 140.22 151.347 105.968 164.142 102.148C155.844 121.241 143.921 136.133 131.89 153.465Z" fill="black"/>
<path d="M113.309 131.686C119.428 118.595 128.292 107.358 138.157 96.7969C138.912 97.2922 139.668 97.7875 140.423 98.2828C132.648 110.162 124.873 122.039 117.098 133.918C115.835 133.172 114.571 132.428 113.309 131.686Z" fill="black"/>
</svg>
