<svg width="28" height="28" viewBox="0 0 28 28" fill="none" xmlns="http://www.w3.org/2000/svg">
<path d="M12.6641 20.668H15.3307V12.668H12.6641V20.668ZM13.9974 10.0013C14.3752 10.0013 14.6918 9.87352 14.9474 9.61797C15.203 9.36241 15.3307 9.04575 15.3307 8.66797C15.3307 8.29019 15.203 7.97352 14.9474 7.71797C14.6918 7.46241 14.3752 7.33463 13.9974 7.33463C13.6196 7.33463 13.303 7.46241 13.0474 7.71797C12.7918 7.97352 12.6641 8.29019 12.6641 8.66797C12.6641 9.04575 12.7918 9.36241 13.0474 9.61797C13.303 9.87352 13.6196 10.0013 13.9974 10.0013ZM13.9974 27.3346C12.153 27.3346 10.4196 26.9846 8.79739 26.2846C7.17517 25.5846 5.76406 24.6346 4.56406 23.4346C3.36406 22.2346 2.41406 20.8235 1.71406 19.2013C1.01406 17.5791 0.664062 15.8457 0.664062 14.0013C0.664062 12.1569 1.01406 10.4235 1.71406 8.8013C2.41406 7.17908 3.36406 5.76797 4.56406 4.56797C5.76406 3.36797 7.17517 2.41797 8.79739 1.71797C10.4196 1.01797 12.153 0.667969 13.9974 0.667969C15.8418 0.667969 17.5752 1.01797 19.1974 1.71797C20.8196 2.41797 22.2307 3.36797 23.4307 4.56797C24.6307 5.76797 25.5807 7.17908 26.2807 8.8013C26.9807 10.4235 27.3307 12.1569 27.3307 14.0013C27.3307 15.8457 26.9807 17.5791 26.2807 19.2013C25.5807 20.8235 24.6307 22.2346 23.4307 23.4346C22.2307 24.6346 20.8196 25.5846 19.1974 26.2846C17.5752 26.9846 15.8418 27.3346 13.9974 27.3346ZM13.9974 24.668C16.9752 24.668 19.4974 23.6346 21.5641 21.568C23.6307 19.5013 24.6641 16.9791 24.6641 14.0013C24.6641 11.0235 23.6307 8.5013 21.5641 6.43464C19.4974 4.36797 16.9752 3.33464 13.9974 3.33464C11.0196 3.33464 8.4974 4.36797 6.43073 6.43464C4.36406 8.5013 3.33073 11.0235 3.33073 14.0013C3.33073 16.9791 4.36406 19.5013 6.43073 21.568C8.4974 23.6346 11.0196 24.668 13.9974 24.668Z" fill="black"/>
</svg>
