<svg width="98" height="98" viewBox="0 0 98 98" fill="none" xmlns="http://www.w3.org/2000/svg">
<path d="M92.2833 98C80.9408 98 69.7343 95.5273 58.6639 90.582C47.5935 85.6366 37.5213 78.6269 28.4472 69.5528C19.3731 60.4787 12.3634 50.4065 7.41806 39.3361C2.47269 28.2657 0 17.0593 0 5.71667C0 4.08333 0.544444 2.72222 1.63333 1.63333C2.72222 0.544444 4.08333 0 5.71667 0H27.7667C29.037 0 30.1713 0.431018 31.1694 1.29306C32.1676 2.15509 32.7574 3.17593 32.9389 4.35556L36.4778 23.4111C36.6593 24.863 36.6139 26.088 36.3417 27.0861C36.0695 28.0843 35.5704 28.9463 34.8444 29.6722L21.6417 43.0111C23.4565 46.3685 25.6116 49.6125 28.1069 52.7431C30.6023 55.8736 33.3472 58.8907 36.3417 61.7944C39.1546 64.6074 42.1037 67.2162 45.1889 69.6208C48.2741 72.0255 51.5407 74.2259 54.9889 76.2222L67.7833 63.4278C68.6 62.6111 69.6662 61.9986 70.9819 61.5903C72.2977 61.1819 73.5907 61.0685 74.8611 61.25L93.6445 65.0611C94.9148 65.4241 95.9583 66.0819 96.775 67.0347C97.5917 67.9875 98 69.0537 98 70.2333V92.2833C98 93.9167 97.4556 95.2778 96.3667 96.3667C95.2778 97.4556 93.9167 98 92.2833 98ZM16.4694 32.6667L25.4528 23.6833L23.1389 10.8889H11.025C11.4787 14.6093 12.1139 18.2843 12.9306 21.9139C13.7472 25.5435 14.9269 29.1278 16.4694 32.6667ZM65.1972 81.3944C68.7361 82.937 72.3431 84.162 76.0181 85.0695C79.6931 85.9769 83.3907 86.5667 87.1111 86.8389V74.8611L74.3167 72.275L65.1972 81.3944Z" fill="#1C1B1F"/>
<path d="M65.3333 48.9996C65.3333 44.4625 63.7454 40.606 60.5694 37.4301C57.3935 34.2542 53.537 32.6662 49 32.6662V21.7773C56.5315 21.7773 62.9514 24.4315 68.2597 29.7398C73.5681 35.0482 76.2222 41.4681 76.2222 48.9996H65.3333Z" fill="white"/>
<path d="M87.1111 49C87.1111 38.3833 83.4134 29.3773 76.0181 21.9819C68.6227 14.5866 59.6167 10.8889 49 10.8889V0C55.8056 0 62.1801 1.29306 68.1236 3.87917C74.0671 6.46528 79.2394 9.9588 83.6403 14.3597C88.0412 18.7606 91.5347 23.9329 94.1208 29.8764C96.707 35.8199 98 42.1944 98 49H87.1111Z" fill="white"/>
</svg>
