<svg width="56" height="38" viewBox="0 0 56 38" fill="none" xmlns="http://www.w3.org/2000/svg">
<path d="M31.64 38C30.1869 38 29.4604 37.3603 29.4604 36.0808C29.4604 34.8013 31.2126 32.6263 34.7171 29.5556C37.1958 27.0819 38.4352 25.5892 38.4352 25.0774C38.4352 24.3951 37.5804 24.0965 35.8709 24.1818C34.1615 24.3524 32.7084 24.1392 31.5118 23.5421C30.3152 23.0303 29.7168 21.4523 29.7168 18.8081C29.7168 15.2256 31.6827 11.174 35.6145 6.6532C39.4608 2.21774 43.7345 0 48.4356 0C50.7434 0 52.5811 0.810326 53.9486 2.43098C55.3162 4.05163 56 6.09877 56 8.57239C56 12.0696 54.4615 16.1212 51.3844 20.7273C48.2219 25.3333 44.632 29.3423 40.6147 32.7542C36.5975 36.2514 33.6059 38 31.64 38ZM2.05137 38C0.683788 38 0 37.3603 0 36.0808C0 34.6308 1.75221 32.4557 5.25663 29.5556C7.6499 27.1672 8.84653 25.6745 8.84653 25.0774C8.84653 24.3951 7.99179 24.0965 6.28232 24.1818C4.57285 24.3524 3.16253 24.1392 2.05137 23.5421C0.854736 23.0303 0.256424 21.4523 0.256424 18.8081C0.256424 15.2256 2.22232 11.174 6.15411 6.6532C10.0859 2.21774 14.3168 0 18.8469 0C21.1547 0 23.0352 0.810326 24.4882 2.43098C25.8558 4.05163 26.5396 6.09877 26.5396 8.57239C26.5396 12.0696 24.9583 16.1212 21.7958 20.7273C18.6333 25.4186 15.0434 29.4703 11.0261 32.8822C7.00885 36.2941 4.01727 38 2.05137 38Z" fill="#E10532"/>
</svg>
