<svg width="56" height="38" viewBox="0 0 56 38" fill="none" xmlns="http://www.w3.org/2000/svg">
<path d="M24.36 0C25.8131 0 26.5396 0.639731 26.5396 1.91919C26.5396 3.19865 24.7874 5.37374 21.2829 8.44444C18.8042 10.9181 17.5648 12.4108 17.5648 12.9226C17.5648 13.6049 18.4196 13.9035 20.1291 13.8182C21.8385 13.6476 23.2916 13.8608 24.4882 14.4579C25.6848 14.9697 26.2832 16.5477 26.2832 19.1919C26.2832 22.7744 24.3173 26.826 20.3855 31.3468C16.5392 35.7823 12.2655 38 7.56442 38C5.25663 38 3.41895 37.1897 2.05137 35.569C0.68379 33.9484 0 31.9012 0 29.4276C0 25.9304 1.53853 21.8788 4.61558 17.2727C7.7781 12.6667 11.368 8.65769 15.3853 5.24579C19.4025 1.7486 22.3941 0 24.36 0ZM53.9486 0C55.3162 0 56 0.639731 56 1.91919C56 3.36925 54.2478 5.54433 50.7434 8.44444C48.3501 10.8328 47.1535 12.3255 47.1535 12.9226C47.1535 13.6049 48.0082 13.9035 49.7177 13.8182C51.4272 13.6476 52.8375 13.8608 53.9486 14.4579C55.1453 14.9697 55.7436 16.5477 55.7436 19.1919C55.7436 22.7744 53.7777 26.826 49.8459 31.3468C45.9141 35.7823 41.6832 38 37.1531 38C34.8453 38 32.9648 37.1897 31.5118 35.569C30.1442 33.9484 29.4604 31.9012 29.4604 29.4276C29.4604 25.9304 31.0417 21.8788 34.2042 17.2727C37.3667 12.5814 40.9566 8.52974 44.9739 5.11785C48.9912 1.70595 51.9827 0 53.9486 0Z" fill="#E10532"/>
</svg>
