<svg width="14" height="16" viewBox="0 0 14 16" fill="none" xmlns="http://www.w3.org/2000/svg">
<path d="M11.588 3.5067C10.78 2.97988 10.1969 2.13696 10.0149 1.15435C9.97563 0.942046 9.95404 0.723554 9.95404 0.5H7.37523L7.3711 10.835C7.32775 11.9923 6.37521 12.9212 5.20749 12.9212C4.84456 12.9212 4.50282 12.8305 4.20193 12.6721C3.51194 12.309 3.03975 11.5858 3.03975 10.7535C3.03975 9.55813 4.01225 8.58563 5.20749 8.58563C5.43061 8.58563 5.64465 8.62244 5.84711 8.68586V6.05318C5.63759 6.02465 5.42471 6.00682 5.20749 6.00682C2.59019 6.00682 0.460938 8.13617 0.460938 10.7535C0.460938 12.3593 1.26325 13.7804 2.48727 14.6397C3.25826 15.181 4.19607 15.5 5.20749 15.5C7.82479 15.5 9.95404 13.3708 9.95404 10.7535V5.51276C10.9655 6.23871 12.2047 6.6665 13.5418 6.6665V4.0877C12.8215 4.0877 12.1507 3.87356 11.588 3.5067" fill="white"/>
</svg>
