<svg width="600" height="700" viewBox="0 0 600 700" fill="none" xmlns="http://www.w3.org/2000/svg">
<path d="M300 0V50H550V425H600V50C599.985 36.7438 594.712 24.035 585.339 14.6615C575.965 5.28794 563.256 0.0152183 550 0H300Z" fill="black"/>
<path d="M175 125V175H425V550H475V175C474.985 161.744 469.712 149.035 460.339 139.661C450.965 130.288 438.256 125.015 425 125H175Z" fill="black"/>
<path d="M50 250H300C313.256 250.015 325.965 255.288 335.339 264.661C344.712 274.035 349.985 286.744 350 300V650C349.985 663.256 344.712 675.965 335.339 685.339C325.965 694.712 313.256 699.985 300 700H50C36.7438 699.985 24.035 694.712 14.6615 685.339C5.28794 675.965 0.0152183 663.256 0 650V300C0.0152183 286.744 5.28794 274.035 14.6615 264.661C24.035 255.288 36.7438 250.015 50 250ZM300 300L50 299.97V650H300V300Z" fill="black"/>
</svg>
